# Blender v3.2.0 OBJ File: ''
# www.blender.org
mtllib aisle.mtl
o Cube.001_Cube.024
v -0.805000 -1.600000 14.079279
v -0.805000 1.600000 14.079279
v -0.805000 -1.600000 9.453703
v -0.805000 1.600000 9.453703
v 0.805000 -1.600000 14.079279
v 0.805000 1.600000 14.079279
v 0.805000 -1.600000 9.453703
v 0.805000 1.600000 9.453703
vt 0.691806 0.500000
vt 0.345903 0.500000
vt 0.345903 0.000000
vt 0.691806 0.000000
vt 0.522097 0.500000
vt 0.522097 0.845903
vt 0.348065 0.845903
vt 0.348065 0.500000
vt 0.345903 0.500000
vt 0.000000 0.500000
vt 0.000000 0.000000
vt 0.345903 0.000000
vt 0.348065 0.500000
vt 0.348065 0.845903
vt 0.174032 0.845903
vt 0.174032 0.500000
vt 0.865838 0.000000
vt 0.865838 0.500000
vt 0.174032 0.500000
vt 0.174032 1.000000
vt 0.000000 1.000000
vn -1.0000 0.0000 0.0000
vn 0.0000 0.0000 -1.0000
vn 1.0000 0.0000 0.0000
vn 0.0000 0.0000 1.0000
vn 0.0000 -1.0000 0.0000
vn 0.0000 1.0000 0.0000
usemtl Material.001
s off
f 1/1/1 2/2/1 4/3/1 3/4/1
f 3/5/2 4/6/2 8/7/2 7/8/2
f 7/9/3 8/10/3 6/11/3 5/12/3
f 5/13/4 6/14/4 2/15/4 1/16/4
f 3/4/5 7/17/5 5/18/5 1/1/5
f 8/10/6 4/19/6 2/20/6 6/21/6
