# Blender v3.2.0 OBJ File: 'objects.blend'
# www.blender.org
mtllib checkout_object.mtl
o Cube.007_Cube.011
v -17.000000 -1.000000 -10.000000
v -17.000000 1.000000 -10.000000
v -17.000000 -1.000000 -15.000000
v -17.000000 1.000000 -15.000000
v -15.000000 -1.000000 -10.000000
v -15.000000 1.000000 -10.000000
v -15.000000 -1.000000 -15.000000
v -15.000000 1.000000 -15.000000
v -17.000000 -1.000000 -12.500000
v -17.000000 1.000000 -12.500000
v -15.000000 -1.000000 -12.500000
v -15.000000 1.000000 -12.500000
v -15.000000 3.000000 -12.500000
v -15.000000 3.000000 -10.000000
v -17.000000 3.000000 -10.000000
v -17.000000 3.000000 -12.500000
v -13.545286 1.000000 -12.500000
v -13.545286 1.000000 -10.000000
v -14.000000 -1.000000 -10.000000
v -14.000000 -1.000000 -12.500000
v -13.291557 0.426448 -12.500000
v -13.291557 0.426448 -10.000000
v -13.291557 -1.000000 -10.000000
v -13.291557 -1.000000 -12.500000
v -17.000000 -0.123172 -10.000000
v -17.000000 0.035819 -10.000000
v -17.000000 0.035819 -15.000000
v -17.000000 -0.123172 -15.000000
v -15.000000 0.035819 -15.000000
v -15.000000 -0.123172 -15.000000
v -15.000000 0.035819 -10.000000
v -15.000000 -0.123172 -10.000000
v -15.000000 0.035819 -12.500000
v -15.000000 -0.123172 -12.500000
v -17.000000 0.035819 -12.500000
v -17.000000 -0.123172 -12.500000
v -13.696857 0.035819 -10.000000
v -13.848429 -0.123172 -10.000000
v -13.696857 0.035819 -12.500000
v -13.848429 -0.123172 -12.500000
v -13.291557 -0.055371 -10.000000
v -13.291557 -0.168767 -10.000000
v -13.291557 -0.055371 -12.500000
v -13.291557 -0.168767 -12.500000
v -13.000000 0.035819 -15.000000
v -13.000000 -0.123172 -15.000000
v -13.000000 0.035819 -12.500000
v -13.000000 -0.123172 -12.500000
v -15.000000 1.200000 -12.250000
v -15.000000 1.200000 -10.250000
v -15.000000 2.800000 -12.250000
v -15.000000 2.800000 -10.250000
v -15.277080 1.200000 -12.250000
v -15.277080 1.200000 -10.250000
v -15.277080 2.800000 -12.250000
v -15.277080 2.800000 -10.250000
v -16.000000 4.344513 -11.624478
v -15.718143 4.344513 -11.488743
v -16.000000 2.743664 -11.564394
v -16.000000 4.344513 -11.564394
v -15.765119 2.743664 -11.451281
v -15.765119 4.344513 -11.451281
v -15.707108 2.743664 -11.197119
v -15.707108 4.344513 -11.197119
v -15.869651 2.743664 -10.993297
v -15.869651 4.344513 -10.993297
v -16.130350 2.743664 -10.993297
v -16.130350 4.344513 -10.993297
v -16.292892 2.743664 -11.197119
v -16.292892 4.344513 -11.197119
v -16.234882 2.743664 -11.451281
v -16.234882 4.344513 -11.451281
v -15.648529 4.344513 -11.183748
v -15.843581 4.344513 -10.939161
v -16.156420 4.344513 -10.939161
v -16.351471 4.344513 -11.183748
v -16.281858 4.344513 -11.488743
v -16.000000 4.935983 -11.624478
v -16.281858 4.935983 -11.488743
v -16.351471 4.935983 -11.183748
v -16.156420 4.935983 -10.939161
v -15.843581 4.935983 -10.939161
v -15.648529 4.935983 -11.183748
v -15.718143 4.935983 -11.488743
v -15.000000 0.159209 -8.617319
v -15.000000 0.484080 -8.617319
v -15.000000 0.159209 -10.022396
v -15.000000 0.484080 -10.022396
v -13.000000 0.159209 -8.617319
v -13.000000 0.484080 -8.617319
v -13.000000 0.159209 -10.022396
v -13.000000 0.484080 -10.022396
v -17.000000 0.035819 -8.346531
v -17.000000 1.000000 -8.346531
v -15.000000 -0.123172 -8.346531
v -15.000000 -1.000000 -8.346531
v -17.000000 -1.000000 -8.346531
v -15.000000 1.000000 -8.346531
v -17.000000 -0.123172 -8.346531
v -15.000000 0.035819 -8.346531
v -16.394409 1.002331 -8.605591
v -16.394409 2.165844 -8.605591
v -16.394409 1.002331 -9.680180
v -16.394409 2.165844 -9.680180
v -15.485480 1.002331 -8.605591
v -15.485480 2.165844 -8.605591
v -15.485480 1.002331 -9.680180
v -15.485480 2.165844 -9.680180
vt 0.024393 0.842455
vt 0.021671 0.842455
vt 0.021671 0.814797
vt 0.024393 0.814797
vt 0.040509 0.859006
vt 0.037787 0.859006
vt 0.037787 0.836901
vt 0.040509 0.836901
vt 0.027432 0.593111
vt 0.027432 0.620783
vt 0.023325 0.620783
vt 0.023325 0.593111
vt 0.027317 0.870141
vt 0.032964 0.870141
vt 0.032964 0.888443
vt 0.027317 0.888443
vt 0.027317 0.842469
vt 0.032964 0.842469
vt 0.027317 0.916115
vt 0.032962 0.916126
vt 0.032398 0.918891
vt 0.027882 0.918882
vt 0.038610 0.888443
vt 0.044257 0.888443
vt 0.044257 0.916115
vt 0.038610 0.916115
vt 0.027317 0.814797
vt 0.032964 0.814797
vt 0.048224 0.888443
vt 0.050945 0.888448
vt 0.050945 0.916112
vt 0.048224 0.916107
vt 0.024393 0.870113
vt 0.021671 0.870113
vt 0.027317 0.888443
vt 0.032964 0.888443
vt 0.032964 0.916115
vt 0.027317 0.916115
vt 0.016024 0.870113
vt 0.016024 0.842455
vt 0.044255 0.916115
vt 0.044255 0.938252
vt 0.038609 0.938252
vt 0.038609 0.916115
vt 0.016024 0.916133
vt 0.021662 0.916133
vt 0.021662 0.938270
vt 0.016024 0.938270
vt 0.035787 0.870141
vt 0.035787 0.842469
vt 0.037787 0.842469
vt 0.037787 0.870141
vt 0.026508 0.928509
vt 0.026508 0.938215
vt 0.023685 0.938215
vt 0.023257 0.928509
vt 0.043328 0.117557
vt 0.043328 0.128229
vt 0.039227 0.128229
vt 0.039655 0.117557
vt 0.026893 0.625982
vt 0.028253 0.625985
vt 0.028253 0.653649
vt 0.026893 0.653646
vt 0.029887 0.625922
vt 0.029887 0.653586
vt 0.038512 0.121881
vt 0.038512 0.116547
vt 0.021685 0.938215
vt 0.021685 0.929014
vt 0.017480 0.207372
vt 0.017907 0.218044
vt 0.016763 0.219053
vt 0.016763 0.213720
vt 0.022829 0.926750
vt 0.021685 0.927759
vt 0.045431 0.814797
vt 0.045003 0.824502
vt 0.043434 0.823998
vt 0.043434 0.814797
vt 0.044576 0.826262
vt 0.043434 0.825253
vt 0.016024 0.888460
vt 0.018370 0.888465
vt 0.018370 0.916129
vt 0.016024 0.916125
vt 0.018690 0.888466
vt 0.018690 0.916130
vt 0.048250 0.814797
vt 0.048250 0.824502
vt 0.048250 0.826262
vt 0.021587 0.207372
vt 0.021587 0.218044
vt 0.026508 0.926750
vt 0.024842 0.870113
vt 0.024842 0.842455
vt 0.048250 0.814797
vt 0.050725 0.814802
vt 0.050725 0.842466
vt 0.048250 0.842461
vt 0.027127 0.580025
vt 0.027127 0.607697
vt 0.021480 0.607697
vt 0.021480 0.580025
vt 0.024393 0.888405
vt 0.021671 0.888405
vt 0.024842 0.888405
vt 0.043434 0.859006
vt 0.040958 0.859006
vt 0.040958 0.836901
vt 0.043434 0.836901
vt 0.024842 0.814797
vt 0.051642 0.814797
vt 0.052091 0.814798
vt 0.052091 0.842462
vt 0.051642 0.842461
vt 0.051711 0.933825
vt 0.052159 0.933825
vt 0.052159 0.955962
vt 0.051711 0.955962
vt 0.040509 0.814797
vt 0.040958 0.814797
vt 0.037787 0.886678
vt 0.037787 0.859006
vt 0.043434 0.859006
vt 0.043434 0.886678
vt 0.050975 0.933825
vt 0.050975 0.916115
vt 0.051756 0.916115
vt 0.051756 0.933825
vt 0.032962 0.943790
vt 0.032398 0.941023
vt 0.027317 0.943779
vt 0.027882 0.941014
vt 0.726713 0.623266
vt 0.726713 0.601134
vt 0.731229 0.601143
vt 0.731229 0.623275
vt 0.051507 0.836901
vt 0.051507 0.859039
vt 0.050725 0.859039
vt 0.050725 0.836901
vt 0.051727 0.888443
vt 0.051727 0.906153
vt 0.050945 0.906153
vt 0.050945 0.888443
vt 0.026508 0.938215
vt 0.026508 0.916077
vt 0.027290 0.916077
vt 0.027290 0.938215
vt 0.601998 0.336561
vt 0.602772 0.336561
vt 0.602772 0.343107
vt 0.601998 0.343107
vt 0.041616 0.939543
vt 0.041297 0.942143
vt 0.041127 0.942143
vt 0.041510 0.939023
vt 0.026471 0.888405
vt 0.026471 0.906125
vt 0.025792 0.906125
vt 0.025792 0.888405
vt 0.603194 0.393602
vt 0.603867 0.393602
vt 0.603867 0.400149
vt 0.603194 0.400149
vt 0.042909 0.943586
vt 0.042909 0.940700
vt 0.043062 0.940411
vt 0.043062 0.943874
vt 0.048772 0.933857
vt 0.048772 0.916142
vt 0.049493 0.916155
vt 0.049493 0.933870
vt 0.604315 0.343106
vt 0.603637 0.343154
vt 0.603637 0.336608
vt 0.604315 0.336561
vt 0.042334 0.938901
vt 0.042371 0.938252
vt 0.050057 0.916115
vt 0.050057 0.933830
vt 0.581929 0.361472
vt 0.582812 0.361472
vt 0.582812 0.368018
vt 0.581929 0.368018
vt 0.041616 0.944743
vt 0.041510 0.945262
vt 0.051711 0.933825
vt 0.051711 0.951544
vt 0.050975 0.951544
vt 0.050975 0.933825
vt 0.600392 0.397492
vt 0.600776 0.394372
vt 0.601637 0.393602
vt 0.602327 0.395761
vt 0.602327 0.399224
vt 0.601637 0.401382
vt 0.600776 0.400612
vt 0.050055 0.933870
vt 0.050055 0.951589
vt 0.049494 0.951589
vt 0.049494 0.933870
vt 0.042334 0.945385
vt 0.042371 0.946033
vt 0.602327 0.393602
vt 0.602327 0.400149
vt 0.048772 0.951589
vt 0.048772 0.933870
vt 0.602772 0.343139
vt 0.602772 0.336593
vt 0.027116 0.888405
vt 0.027116 0.906125
vt 0.043753 0.881856
vt 0.044471 0.881214
vt 0.045046 0.883013
vt 0.045046 0.885899
vt 0.044471 0.887698
vt 0.043753 0.887056
vt 0.043434 0.884456
vt 0.601183 0.336561
vt 0.601183 0.343107
vt 0.050975 0.953797
vt 0.050057 0.953797
vt 0.050057 0.938252
vt 0.050975 0.938252
vt 0.051642 0.836901
vt 0.050725 0.836901
vt 0.050725 0.814797
vt 0.051642 0.814797
vt 0.043979 0.953802
vt 0.043062 0.953800
vt 0.043062 0.938252
vt 0.043979 0.938254
vt 0.050975 0.938252
vt 0.050057 0.938252
vt 0.050057 0.916115
vt 0.050975 0.916115
vt 0.052067 0.859072
vt 0.052067 0.881210
vt 0.048101 0.881210
vt 0.048101 0.859072
vt 0.026897 0.599711
vt 0.026897 0.621849
vt 0.022930 0.621849
vt 0.022930 0.599711
vt 0.038609 0.927580
vt 0.038609 0.938252
vt 0.032962 0.938252
vt 0.032962 0.927580
vt 0.038609 0.916115
vt 0.038609 0.925820
vt 0.032962 0.925820
vt 0.032962 0.916115
vt 0.043434 0.869751
vt 0.043434 0.859081
vt 0.048101 0.859072
vt 0.048101 0.869742
vt 0.048102 0.836935
vt 0.048102 0.859072
vt 0.043434 0.859072
vt 0.043434 0.836935
vt 0.043434 0.881214
vt 0.043434 0.871511
vt 0.048101 0.871501
vt 0.048101 0.881205
vt 0.035995 0.938252
vt 0.035995 0.951131
vt 0.032962 0.951131
vt 0.032962 0.938252
vt 0.027280 0.938215
vt 0.027280 0.951094
vt 0.024718 0.951094
vt 0.024718 0.938215
vt 0.036449 0.668927
vt 0.036449 0.656051
vt 0.039482 0.656045
vt 0.039482 0.668921
vt 0.050668 0.846193
vt 0.050668 0.859072
vt 0.048102 0.859072
vt 0.048102 0.846193
vt 0.038561 0.938252
vt 0.041127 0.938252
vt 0.041127 0.950147
vt 0.038561 0.950147
vt 0.035995 0.938252
vt 0.038561 0.938252
vt 0.038561 0.950147
vt 0.035995 0.950147
vn -1.0000 0.0000 0.0000
vn 0.0000 0.0000 -1.0000
vn 0.0000 1.0000 0.0000
vn 0.0000 -1.0000 0.0000
vn 1.0000 0.0000 0.0000
vn 0.0000 0.0000 1.0000
vn 0.9145 0.4046 0.0000
vn -0.4339 0.0000 -0.9010
vn 0.4339 0.0000 -0.9010
vn -0.7818 0.0000 0.6235
vn 0.9749 0.0000 -0.2225
vn 0.7818 0.0000 0.6235
vn -0.9749 0.0000 -0.2225
usemtl Material.002
s off
f 35/1/1 10/2/1 4/3/1 27/4/1
f 27/5/2 4/6/2 8/7/2 29/8/2
f 12/9/3 6/10/3 18/11/3 17/12/3
f 1/13/4 5/14/4 96/15/4 97/16/4
f 9/17/4 11/18/4 5/14/4 1/13/4
f 12/19/5 13/20/5 51/21/5 49/22/5
f 8/23/3 4/24/3 10/25/3 12/26/3
f 3/27/4 7/28/4 11/18/4 9/17/4
f 29/29/5 8/30/5 12/31/5 33/32/5
f 26/33/1 2/34/1 10/2/1 35/1/1
f 13/35/3 16/36/3 15/37/3 14/38/3
f 10/2/1 2/34/1 15/39/1 16/40/1
f 2/41/6 6/42/6 14/43/6 15/44/6
f 12/45/2 10/46/2 16/47/2 13/48/2
f 19/49/4 20/50/4 24/51/4 23/52/4
f 32/53/6 5/54/6 19/55/6 38/56/6
f 33/57/2 12/58/2 17/59/2 39/60/2
f 5/14/4 11/18/4 20/50/4 19/49/4
f 43/61/5 21/62/5 22/63/5 41/64/5
f 17/65/7 18/66/7 22/63/7 21/62/7
f 39/60/2 17/59/2 21/67/2 43/68/2
f 38/56/6 19/55/6 23/69/6 42/70/6
f 18/71/6 37/72/6 41/73/6 22/74/6
f 37/75/6 38/56/6 42/70/6 41/76/6
f 20/77/2 40/78/2 44/79/2 24/80/2
f 40/78/2 39/81/2 43/82/2 44/79/2
f 24/83/5 44/84/5 42/85/5 23/86/5
f 44/84/5 43/87/5 41/88/5 42/85/5
f 11/89/2 34/90/2 40/78/2 20/77/2
f 34/90/2 33/91/2 39/81/2 40/78/2
f 6/92/6 31/93/6 37/72/6 18/71/6
f 31/94/6 32/53/6 38/56/6 37/75/6
f 1/13/1 25/95/1 36/96/1 9/17/1
f 25/95/1 26/33/1 35/1/1 36/96/1
f 7/97/5 30/98/5 34/99/5 11/100/5
f 29/101/3 33/102/3 47/103/3 45/104/3
f 2/34/1 26/33/1 93/105/1 94/106/1
f 26/33/1 25/95/1 99/107/1 93/105/1
f 3/108/2 28/109/2 30/110/2 7/111/2
f 28/109/2 27/5/2 29/8/2 30/110/2
f 9/17/1 36/96/1 28/112/1 3/27/1
f 36/96/1 35/1/1 27/4/1 28/112/1
f 46/113/5 45/114/5 47/115/5 48/116/5
f 33/117/6 34/118/6 48/119/6 47/120/6
f 30/110/2 29/8/2 45/121/2 46/122/2
f 34/123/4 30/124/4 46/125/4 48/126/4
f 52/127/2 50/128/2 54/129/2 56/130/2
f 13/20/5 14/131/5 52/132/5 51/21/5
f 14/131/5 6/133/5 50/134/5 52/132/5
f 6/133/5 12/19/5 49/22/5 50/134/5
f 54/135/5 53/136/5 55/137/5 56/138/5
f 51/139/4 52/140/4 56/141/4 55/142/4
f 49/143/6 51/144/6 55/145/6 53/146/6
f 50/147/3 49/148/3 53/149/3 54/150/3
f 57/151/8 77/152/8 79/153/8 78/154/8
f 60/155/4 72/156/4 77/157/4 57/158/4
f 59/159/9 60/160/9 62/161/9 61/162/9
f 76/163/10 75/164/10 81/165/10 80/166/10
f 66/167/4 64/168/4 73/169/4 74/170/4
f 61/171/11 62/172/11 64/173/11 63/174/11
f 74/175/12 73/176/12 83/177/12 82/178/12
f 62/179/4 60/155/4 57/158/4 58/180/4
f 63/174/12 64/173/12 66/181/12 65/182/12
f 75/183/6 74/184/6 82/185/6 81/186/6
f 72/156/4 70/187/4 76/188/4 77/157/4
f 65/189/6 66/190/6 68/191/6 67/192/6
f 84/193/3 78/194/3 79/195/3 80/196/3 81/197/3 82/198/3 83/199/3
f 64/168/4 62/179/4 58/180/4 73/169/4
f 67/200/10 68/201/10 70/202/10 69/203/10
f 70/187/4 68/204/4 75/205/4 76/188/4
f 77/206/13 76/163/13 80/166/13 79/207/13
f 69/203/13 70/202/13 72/208/13 71/209/13
f 73/176/11 58/210/11 84/211/11 83/177/11
f 68/204/4 66/167/4 74/170/4 75/205/4
f 71/212/8 72/213/8 60/160/8 59/159/8
f 59/214/4 61/215/4 63/216/4 65/217/4 67/218/4 69/219/4 71/220/4
f 58/221/9 57/151/9 78/154/9 84/222/9
f 85/223/1 86/224/1 88/225/1 87/226/1
f 87/227/2 88/228/2 92/229/2 91/230/2
f 91/231/5 92/232/5 90/233/5 89/234/5
f 89/235/6 90/236/6 86/237/6 85/238/6
f 87/239/4 91/240/4 89/241/4 85/242/4
f 92/243/3 88/244/3 86/245/3 90/246/3
f 100/247/6 98/248/6 94/249/6 93/250/6
f 96/251/6 95/252/6 99/253/6 97/254/6
f 95/252/6 100/247/6 93/250/6 99/253/6
f 31/255/5 6/256/5 98/257/5 100/258/5
f 25/95/1 1/13/1 97/16/1 99/107/1
f 6/259/3 2/260/3 94/261/3 98/262/3
f 5/263/5 32/264/5 95/265/5 96/266/5
f 32/264/5 31/255/5 100/258/5 95/265/5
f 101/267/1 102/268/1 104/269/1 103/270/1
f 103/271/2 104/272/2 108/273/2 107/274/2
f 107/275/5 108/276/5 106/277/5 105/278/5
f 105/279/6 106/280/6 102/281/6 101/282/6
f 103/283/4 107/284/4 105/285/4 101/286/4
f 108/287/3 104/288/3 102/289/3 106/290/3
