# Blender v3.2.0 OBJ File: 'ColdHolder.blend'
# www.blender.org
mtllib ColdHolder2.mtl
o Cube
v 2.552464 0.354892 -1.000000
v 2.552464 -0.354892 -1.000000
v 2.552464 0.354892 1.032962
v 2.552464 -0.354892 0.594779
v -2.552464 0.354892 -1.000000
v -2.552464 -0.354892 -1.000000
v -2.552464 0.354892 1.032962
v -2.552464 -0.354892 0.594779
v 2.552464 0.765147 1.032962
v -2.552464 0.765147 1.032962
v 2.552464 0.744649 -1.000000
v -2.552464 0.744649 -1.000000
v 2.462815 0.765147 0.940900
v -2.462815 0.765147 0.940900
v 2.462815 0.744649 -0.907939
v -2.462815 0.744649 -0.907939
v 2.462815 0.401087 0.940900
v -2.462815 0.401087 0.940900
v 2.462815 0.401087 -0.907939
v -2.462815 0.401087 -0.907939
v -2.552464 3.323356 -1.000000
v 2.552464 3.323356 -1.000000
v -2.462815 3.323356 -0.907939
v 2.462815 3.323356 -0.907939
v 2.552464 1.201680 -1.000000
v 2.552464 1.392778 -1.000000
v 2.552464 1.933446 -1.000000
v 2.552464 2.134559 -1.000000
v 2.552464 2.684350 -1.000000
v 2.552464 2.857202 -1.000000
v 2.462815 2.857202 -0.907939
v 2.462815 2.684350 -0.907939
v 2.462815 2.134559 -0.907939
v 2.462815 1.933446 -0.907939
v 2.462815 1.392778 -0.907939
v 2.462815 1.201680 -0.907939
v -2.462815 1.201680 -0.907939
v -2.462815 1.392778 -0.907939
v -2.462815 1.933446 -0.907939
v -2.462815 2.134559 -0.907939
v -2.462815 2.684350 -0.907939
v -2.462815 2.857202 -0.907939
v -2.552464 2.857202 -1.000000
v -2.552464 2.684350 -1.000000
v -2.552464 2.134559 -1.000000
v -2.552464 1.933446 -1.000000
v -2.552464 1.392778 -1.000000
v -2.552464 1.201680 -1.000000
v 2.462815 2.810938 0.343630
v 2.462815 2.684350 0.389103
v 2.462815 2.088295 0.343630
v 2.462815 1.933446 0.389103
v 2.462815 1.346514 0.343630
v 2.462815 1.201680 0.389103
v -2.462815 1.201680 0.389103
v -2.462815 1.346514 0.343630
v -2.462815 1.933446 0.389103
v -2.462815 2.088295 0.343630
v -2.462815 2.684350 0.389103
v -2.462815 2.810938 0.343630
vt 0.625000 0.500000
vt 0.625000 0.250000
vt 0.625000 0.250000
vt 0.625000 0.500000
vt 0.375000 0.750000
vt 0.625000 0.750000
vt 0.625000 1.000000
vt 0.375000 1.000000
vt 0.375000 0.000000
vt 0.625000 0.000000
vt 0.375000 0.250000
vt 0.125000 0.500000
vt 0.375000 0.500000
vt 0.125000 0.750000
vt 0.625000 0.000000
vt 0.625000 0.000000
vt 0.625000 0.250000
vt 0.625000 0.750000
vt 0.625000 1.000000
vt 0.625000 0.500000
vt 0.625000 0.250000
vt 0.625000 0.500000
vt 0.625000 0.750000
vt 0.625000 1.000000
vt 0.625000 0.500000
vt 0.625000 0.500000
vt 0.625000 0.500000
vt 0.625000 0.500000
vt 0.875000 0.500000
vt 0.875000 0.750000
vt 0.625000 0.750000
vt 0.625000 0.000000
vt 0.625000 1.000000
vt 0.625000 0.250000
vt 0.625000 0.250000
vt 0.625000 0.250000
vt 0.625000 0.250000
vt 0.625000 0.250000
vt 0.625000 0.500000
vt 0.625000 0.250000
vt 0.625000 0.500000
vt 0.625000 0.250000
vt 0.625000 0.500000
vt 0.625000 0.250000
vt 0.625000 0.500000
vt 0.625000 0.250000
vt 0.625000 0.500000
vt 0.625000 0.500000
vt 0.625000 0.250000
vt 0.625000 0.250000
vt 0.625000 0.250000
vt 0.625000 0.250000
vt 0.625000 0.500000
vt 0.625000 0.500000
vt 0.625000 0.250000
vt 0.625000 0.500000
vt 0.625000 0.250000
vt 0.625000 0.250000
vt 0.625000 0.500000
vt 0.625000 0.500000
vt 0.625000 0.250000
vt 0.625000 0.500000
vt 0.625000 0.500000
vt 0.625000 0.500000
vt 0.625000 0.250000
vt 0.625000 0.250000
vt 0.625000 0.500000
vt 0.625000 0.500000
vt 0.625000 0.250000
vn 0.0000 0.0000 -1.0000
vn 0.0000 -0.5253 0.8509
vn -1.0000 0.0000 0.0000
vn 0.0000 -1.0000 0.0000
vn 1.0000 0.0000 0.0000
vn 0.0000 0.9999 -0.0106
vn 0.0000 0.0000 1.0000
vn 0.0000 1.0000 -0.0000
vn 0.7164 0.0000 0.6977
vn -0.7164 0.0000 0.6977
vn 0.0000 0.9993 0.0369
vn 0.0000 0.2996 0.9541
vn 0.0000 0.2818 0.9595
vn 0.0000 0.3381 0.9411
usemtl Material
s off
f 1/1/1 5/2/1 12/3/1 11/4/1
f 4/5/2 3/6/2 7/7/2 8/8/2
f 8/9/3 7/10/3 5/2/3 6/11/3
f 6/12/4 2/13/4 4/5/4 8/14/4
f 2/13/5 1/1/5 3/6/5 4/5/5
f 6/11/1 5/2/1 1/1/1 2/13/1
f 12/3/6 10/15/6 14/16/6 16/17/6
f 7/7/7 3/6/7 9/18/7 10/19/7
f 5/2/3 7/10/3 10/15/3 12/3/3
f 3/6/5 1/1/5 11/4/5 9/18/5
f 15/20/7 16/17/7 20/21/7 19/22/7
f 10/19/8 9/18/8 13/23/8 14/24/8
f 31/25/9 30/26/9 22/27/9 24/28/9
f 9/18/6 11/4/6 15/20/6 13/23/6
f 19/22/8 20/29/8 18/30/8 17/31/8
f 13/23/3 15/20/3 19/22/3 17/31/3
f 16/17/5 14/16/5 18/32/5 20/21/5
f 14/24/1 13/23/1 17/31/1 18/33/1
f 22/27/8 21/34/8 23/35/8 24/28/8
f 43/36/10 42/37/10 23/35/10 21/34/10
f 42/37/7 31/25/7 24/28/7 23/35/7
f 30/26/1 43/36/1 21/34/1 22/27/1
f 11/4/1 12/3/1 48/38/1 25/39/1
f 25/39/1 48/38/1 47/40/1 26/41/1
f 26/41/1 47/40/1 46/42/1 27/43/1
f 27/43/1 46/42/1 45/44/1 28/45/1
f 28/45/1 45/44/1 44/46/1 29/47/1
f 29/47/1 44/46/1 43/36/1 30/26/1
f 16/17/7 15/20/7 36/48/7 37/49/7
f 38/50/3 37/49/3 55/51/3 56/52/3
f 38/50/7 35/53/7 34/54/7 39/55/7
f 33/56/11 40/57/11 58/58/11 51/59/11
f 40/57/7 33/56/7 32/60/7 41/61/7
f 34/54/5 33/56/5 51/59/5 52/62/5
f 12/3/10 16/17/10 37/49/10 48/38/10
f 48/38/10 37/49/10 38/50/10 47/40/10
f 47/40/10 38/50/10 39/55/10 46/42/10
f 46/42/10 39/55/10 40/57/10 45/44/10
f 45/44/10 40/57/10 41/61/10 44/46/10
f 44/46/10 41/61/10 42/37/10 43/36/10
f 15/20/9 11/4/9 25/39/9 36/48/9
f 36/48/9 25/39/9 26/41/9 35/53/9
f 35/53/9 26/41/9 27/43/9 34/54/9
f 34/54/9 27/43/9 28/45/9 33/56/9
f 33/56/9 28/45/9 29/47/9 32/60/9
f 32/60/9 29/47/9 30/26/9 31/25/9
f 55/51/12 54/63/12 53/64/12 56/52/12
f 57/65/13 52/62/13 51/59/13 58/58/13
f 59/66/14 50/67/14 49/68/14 60/69/14
f 37/49/4 36/48/4 54/63/4 55/51/4
f 41/61/4 32/60/4 50/67/4 59/66/4
f 42/37/3 41/61/3 59/66/3 60/69/3
f 32/60/5 31/25/5 49/68/5 50/67/5
f 35/53/11 38/50/11 56/52/11 53/64/11
f 36/48/5 35/53/5 53/64/5 54/63/5
f 31/25/11 42/37/11 60/69/11 49/68/11
f 40/57/3 39/55/3 57/65/3 58/58/3
f 39/55/4 34/54/4 52/62/4 57/65/4
