# Blender v3.2.0 OBJ File: 'ColdHolder.blend'
# www.blender.org
mtllib ColdHolder2_Items.mtl
o Cube.003
v -2.404457 2.789726 0.327502
v -2.404457 3.279939 0.327502
v -2.404457 2.789726 -0.327502
v -2.404457 3.279939 -0.327502
v 2.404457 2.789726 0.327502
v 2.404457 3.279939 0.327502
v 2.404457 2.789726 -0.327502
v 2.404457 3.279939 -0.327502
vt 0.578227 0.272412
vt 0.476289 0.272412
vt 0.476289 0.136206
vt 0.578227 0.136206
vt 0.476289 1.000000
vt 0.374351 1.000000
vt 0.374351 0.000000
vt 0.476289 0.000000
vt 0.578227 0.136206
vt 0.476289 0.136206
vt 0.476289 0.000000
vt 0.578227 0.000000
vt 0.374351 1.000000
vt 0.272412 1.000000
vt 0.272412 0.000000
vt 0.374351 0.000000
vt 0.136206 0.000000
vt 0.136206 1.000000
vt 0.000000 1.000000
vt 0.000000 0.000000
vt 0.272412 0.000000
vt 0.272412 1.000000
vt 0.136206 1.000000
vt 0.136206 0.000000
vn -1.0000 0.0000 0.0000
vn 0.0000 0.0000 -1.0000
vn 1.0000 0.0000 0.0000
vn 0.0000 0.0000 1.0000
vn 0.0000 -1.0000 0.0000
vn 0.0000 1.0000 0.0000
usemtl Material.001
s off
f 1/1/1 2/2/1 4/3/1 3/4/1
f 3/5/2 4/6/2 8/7/2 7/8/2
f 7/9/3 8/10/3 6/11/3 5/12/3
f 5/13/4 6/14/4 2/15/4 1/16/4
f 3/17/5 7/18/5 5/19/5 1/20/5
f 8/21/6 4/22/6 2/23/6 6/24/6
