# Blender v3.2.0 OBJ File: ''
# www.blender.org
mtllib computer.mtl
o computer_Cube
v 0.664929 1.863271 -1.000000
v 0.664929 -0.136729 -1.000000
v 0.664929 1.863271 1.000000
v 0.664929 -0.136729 1.000000
v -0.664929 1.863271 -1.000000
v -0.664929 -0.136729 -1.000000
v -0.664929 1.863271 1.000000
v -0.664929 -0.136729 1.000000
v 0.664929 1.755863 -0.909436
v 0.664929 0.224290 -0.909436
v 0.664929 1.755863 0.909436
v 0.664929 0.224290 0.909436
v 0.549105 1.755863 -0.909436
v 0.549105 0.224290 -0.909436
v 0.549105 1.755863 0.909436
v 0.549105 0.224290 0.909436
v 1.054543 -0.133172 1.000000
v 1.054543 0.186993 1.000000
v 1.054543 -0.133172 -1.000000
v 1.054543 0.186993 -1.000000
v 1.796248 -0.134613 1.035160
v 1.796248 0.025387 1.035160
v 1.796248 -0.134613 -0.964840
v 1.796248 0.025387 -0.964840
v 1.150337 -0.126586 -1.222908
v 1.150337 0.073414 -1.222908
v 1.150337 -0.126586 -1.622908
v 1.150337 0.073414 -1.622908
v 1.790338 -0.126586 -1.222908
v 1.790338 0.073414 -1.222908
v 1.790338 -0.126586 -1.622908
v 1.790338 0.073414 -1.622908
vt 0.625000 0.500000
vt 0.875000 0.500000
vt 0.875000 0.750000
vt 0.625000 0.750000
vt 0.375000 0.750000
vt 0.625000 1.000000
vt 0.375000 1.000000
vt 0.375000 0.000000
vt 0.625000 0.000000
vt 0.625000 0.250000
vt 0.375000 0.250000
vt 0.125000 0.500000
vt 0.375000 0.500000
vt 0.125000 0.750000
vt 0.625000 0.500000
vt 0.375000 0.500000
vt 0.625000 0.750000
vt 0.375000 0.750000
vt 0.375000 0.750000
vt 0.625000 0.750000
vt 0.375000 0.500000
vt 0.625000 0.500000
vt 0.375000 0.000000
vt 0.625000 0.000000
vt 0.625000 0.250000
vt 0.375000 0.250000
vt 0.625000 0.500000
vt 0.375000 0.500000
vt 0.625000 0.750000
vt 0.375000 0.750000
vt 0.625000 1.000000
vt 0.375000 1.000000
vt 0.125000 0.500000
vt 0.125000 0.750000
vt 0.875000 0.500000
vt 0.875000 0.750000
vt 0.375000 0.000000
vt 0.625000 0.000000
vt 0.625000 0.250000
vt 0.375000 0.250000
vt 0.625000 0.500000
vt 0.375000 0.500000
vt 0.625000 0.750000
vt 0.375000 0.750000
vt 0.625000 1.000000
vt 0.375000 1.000000
vt 0.125000 0.500000
vt 0.125000 0.750000
vt 0.875000 0.500000
vt 0.875000 0.750000
vn 0.0000 1.0000 0.0000
vn 0.0000 0.0000 1.0000
vn -1.0000 0.0000 0.0000
vn 0.0000 -1.0000 0.0000
vn 1.0000 0.0000 0.0000
vn 0.0000 0.0000 -1.0000
vn 0.0474 0.0000 -0.9989
vn -0.0474 0.0000 0.9989
vn -0.0019 -1.0000 0.0000
vn 0.2129 0.9771 0.0000
usemtl Material
s off
f 1/1/1 5/2/1 7/3/1 3/4/1
f 4/5/2 3/4/2 7/6/2 8/7/2
f 8/8/3 7/9/3 5/10/3 6/11/3
f 6/12/4 2/13/4 4/5/4 8/14/4
f 2/13/5 1/1/5 9/15/5 10/16/5
f 6/11/6 5/10/6 1/1/6 2/13/6
f 11/17/6 12/18/6 16/19/6 15/20/6
f 4/5/5 2/13/5 10/16/5 12/18/5
f 1/1/5 3/4/5 11/17/5 9/15/5
f 3/4/5 4/5/5 12/18/5 11/17/5
f 14/21/5 13/22/5 15/20/5 16/19/5
f 9/15/4 11/17/4 15/20/4 13/22/4
f 10/16/2 9/15/2 13/22/2 14/21/2
f 12/18/1 10/16/1 14/21/1 16/19/1
f 17/23/3 18/24/3 20/25/3 19/26/3
f 19/26/7 20/25/7 24/27/7 23/28/7
f 23/28/5 24/27/5 22/29/5 21/30/5
f 21/30/8 22/29/8 18/31/8 17/32/8
f 19/33/9 23/28/9 21/30/9 17/34/9
f 24/27/10 20/35/10 18/36/10 22/29/10
f 25/37/3 26/38/3 28/39/3 27/40/3
f 27/40/6 28/39/6 32/41/6 31/42/6
f 31/42/5 32/41/5 30/43/5 29/44/5
f 29/44/2 30/43/2 26/45/2 25/46/2
f 27/47/4 31/42/4 29/44/4 25/48/4
f 32/41/1 28/49/1 26/50/1 30/43/1
