# Blender v3.2.0 OBJ File: 'objects.blend'
# www.blender.org
mtllib enter_doors.mtl
o Cube.006_Cube.005
v 16.134148 -3.000000 0.200000
v 16.134148 3.000000 0.200000
v 16.134148 -3.000000 -0.200000
v 16.134148 3.000000 -0.200000
v 19.450790 -3.000000 0.200000
v 19.450790 3.000000 0.200000
v 19.450790 -3.000000 -0.200000
v 19.450790 3.000000 -0.200000
v 16.134148 0.000000 0.200000
v 16.134148 0.000000 -0.200000
v 19.450790 0.000000 -0.200000
v 19.450790 0.000000 0.200000
v 16.299980 0.150000 0.200000
v 16.299980 2.850000 0.200000
v 19.284958 2.850000 0.200000
v 19.284958 0.150000 0.200000
v 16.299980 0.150000 0.086724
v 16.299980 2.850000 0.086724
v 19.284958 2.850000 0.086724
v 19.284958 0.150000 0.086724
v 19.284958 -0.150000 0.200000
v 19.284958 -2.850000 0.200000
v 16.299980 -2.850000 0.200000
v 16.299980 -0.150000 0.200000
v 19.284958 -0.150000 0.080377
v 19.284958 -2.850000 0.080377
v 16.299980 -2.850000 0.080377
v 16.299980 -0.150000 0.080377
vt 0.500000 0.000000
vt 0.625000 0.000000
vt 0.625000 0.250000
vt 0.500000 0.250000
vt 0.625000 0.500000
vt 0.500000 0.500000
vt 0.625000 0.750000
vt 0.500000 0.750000
vt 0.625000 0.750000
vt 0.500000 0.750000
vt 0.125000 0.500000
vt 0.375000 0.500000
vt 0.375000 0.750000
vt 0.125000 0.750000
vt 0.875000 0.500000
vt 0.875000 0.750000
vt 0.375000 0.750000
vt 0.125000 0.750000
vt 0.375000 0.250000
vt 0.375000 0.000000
vt 0.875000 0.750000
vt 0.875000 0.750000
vt 0.625000 0.750000
vt 0.500000 1.000000
vt 0.500000 1.000000
vt 0.500000 0.000000
vt 0.625000 0.000000
vt 0.500000 0.750000
vt 0.625000 1.000000
vt 0.500000 1.000000
vt 0.500000 0.000000
vt 0.625000 0.000000
vt 0.500000 0.750000
vt 0.500000 1.000000
vt 0.500000 1.000000
vt 0.500000 0.750000
vt 0.375000 0.000000
vt 0.500000 0.000000
vt 0.375000 0.750000
vt 0.375000 1.000000
vt 0.125000 0.750000
vt 0.375000 0.000000
vt 0.500000 0.000000
vn -1.0000 0.0000 0.0000
vn 0.0000 0.0000 -1.0000
vn 1.0000 0.0000 0.0000
vn 0.0000 0.0000 1.0000
vn 0.0000 -1.0000 0.0000
vn 0.0000 1.0000 0.0000
usemtl None
s off
f 9/1/1 2/2/1 4/3/1 10/4/1
f 10/4/2 4/3/2 8/5/2 11/6/2
f 11/6/3 8/5/3 6/7/3 12/8/3
f 12/8/4 6/7/4 15/9/4 16/10/4
f 3/11/5 7/12/5 5/13/5 1/14/5
f 8/5/6 4/15/6 2/16/6 6/7/6
f 1/14/4 5/13/4 22/17/4 23/18/4
f 7/12/3 11/6/3 12/8/3 5/13/3
f 3/19/2 10/4/2 11/6/2 7/12/2
f 1/20/1 9/1/1 10/4/1 3/19/1
f 15/9/5 14/21/5 18/22/5 19/23/5
f 6/7/4 2/16/4 14/21/4 15/9/4
f 9/24/4 12/8/4 16/10/4 13/25/4
f 2/2/4 9/1/4 13/26/4 14/27/4
f 20/28/4 19/23/4 18/29/4 17/30/4
f 16/10/1 15/9/1 19/23/1 20/28/1
f 14/27/3 13/26/3 17/31/3 18/32/3
f 13/25/6 16/10/6 20/28/6 17/30/6
f 21/33/5 24/34/5 28/35/5 25/36/5
f 5/13/4 12/8/4 21/33/4 22/17/4
f 12/8/4 9/24/4 24/34/4 21/33/4
f 9/1/4 1/20/4 23/37/4 24/38/4
f 26/39/4 25/36/4 28/35/4 27/40/4
f 23/18/6 22/17/6 26/39/6 27/41/6
f 24/38/3 23/37/3 27/42/3 28/43/3
f 22/17/1 21/33/1 25/36/1 26/39/1
