# Blender v3.2.0 OBJ File: 'Freezer.blend'
# www.blender.org
mtllib Freezer1.mtl
o Cube
v 1.000000 0.205751 -1.000000
v 1.000000 -0.205750 -1.000000
v 1.000000 0.205751 1.000000
v 1.000000 -0.205750 1.000000
v -1.000000 0.205751 -1.000000
v -1.000000 -0.205750 -1.000000
v -1.000000 0.205751 1.000000
v -1.000000 -0.205750 1.000000
v 1.000000 0.205751 1.000000
v -1.000000 0.205751 1.000000
v 1.000000 0.205751 -1.000000
v -1.000000 0.205751 -1.000000
v 1.102384 0.205751 1.000000
v -1.008581 0.205751 1.000000
v 1.102384 0.205751 -1.000000
v -1.008581 0.205751 -1.000000
v 1.102384 4.156337 1.000000
v -1.008581 4.156337 1.000000
v 1.102384 4.156337 -1.000000
v -1.008581 4.156337 -1.000000
v 1.102384 0.276180 -0.917692
v 1.102384 0.276180 0.917692
v 1.102384 4.085908 -0.917692
v 1.102384 4.085908 0.917692
v 1.174710 0.276180 -0.917692
v 1.174710 0.276180 0.917692
v 1.174710 4.085908 -0.917692
v 1.174710 4.085908 0.917692
v 1.174710 0.232439 -0.957627
v 1.174710 0.232439 0.957627
v 1.174710 4.129649 -0.957627
v 1.174710 4.129649 0.957627
v 1.297464 0.232439 -0.957627
v 1.297464 0.232439 0.957627
v 1.297464 4.129649 -0.957627
v 1.297464 4.129649 0.957627
v 1.297464 0.334767 -0.852158
v 1.297464 0.334767 0.852158
v 1.297464 4.027321 -0.852158
v 1.297464 4.027321 0.852158
v 1.146568 0.334767 -0.852158
v 1.146568 0.334767 0.852158
v 1.146568 4.027321 -0.852158
v 1.146568 4.027321 0.852158
v 1.145857 2.835950 -0.606878
v 1.145857 2.991996 -0.606878
v 1.145857 2.835950 -0.762924
v 1.145857 2.991996 -0.762924
v 1.455420 2.723942 -0.606878
v 1.455420 2.879988 -0.606878
v 1.455420 2.723942 -0.762924
v 1.455420 2.879988 -0.762924
v 1.307074 2.777617 -0.762924
v 1.307074 2.933663 -0.762924
v 1.307074 2.777617 -0.606878
v 1.307074 2.933663 -0.606878
v 1.455420 1.268755 -0.606878
v 1.455420 1.268755 -0.762924
v 1.307074 1.322430 -0.606878
v 1.307074 1.322430 -0.762924
v 1.128573 1.075894 -0.606878
v 1.128573 1.075894 -0.762924
v 1.091350 1.229197 -0.606878
v 1.091350 1.229197 -0.762924
vt 0.219739 0.411233
vt 0.219739 0.411233
vt 0.219739 0.411233
vt 0.219739 0.411233
vt 0.870001 0.827610
vt 0.827166 0.827610
vt 0.827166 0.619421
vt 0.870001 0.619421
vt 0.912821 0.827610
vt 0.870001 0.827610
vt 0.870001 0.619421
vt 0.912821 0.619421
vt 0.992471 0.619421
vt 0.784331 0.619421
vt 0.784331 0.411233
vt 0.992471 0.411233
vt 0.827166 0.827610
vt 0.784331 0.827610
vt 0.784331 0.619421
vt 0.827166 0.619421
vt 0.898690 0.208188
vt 0.855855 0.208188
vt 0.855855 0.000000
vt 0.898690 0.000000
vt 0.855855 0.218732
vt 0.855855 0.010652
vt 0.855855 0.000000
vt 0.855855 0.219625
vt 0.219739 0.411233
vt 0.219739 0.411233
vt 0.219739 0.411233
vt 0.219739 0.411233
vt 0.219739 0.000000
vt 0.439478 0.000000
vt 0.439478 0.411233
vt 0.219739 0.411233
vt 0.647667 0.386382
vt 0.647667 0.178302
vt 0.647667 0.177409
vt 0.647667 0.397034
vt 0.912821 0.827610
vt 0.912821 0.619421
vt 0.923476 0.619421
vt 0.923476 0.827610
vt 0.924369 0.619421
vt 0.924369 0.827610
vt 0.923476 0.827610
vt 0.923476 0.619421
vt 0.855855 0.000000
vt 0.855855 0.219625
vt 0.647667 0.219625
vt 0.647667 0.000000
vt 0.439478 0.411233
vt 0.439478 0.000000
vt 0.448046 0.007331
vt 0.448046 0.403902
vt 0.000000 0.411233
vt 0.208188 0.411233
vt 0.208188 0.822324
vt 0.000000 0.822324
vt 0.000000 0.000000
vt 0.219739 0.000000
vt 0.219739 0.411233
vt 0.000000 0.411233
vt 0.988330 0.398497
vt 0.988330 0.001927
vt 0.995859 0.001927
vt 0.995859 0.398497
vt 0.647667 0.000000
vt 0.639099 0.007331
vt 0.647667 0.411233
vt 0.639099 0.403902
vt 0.411712 0.812218
vt 0.602765 0.812218
vt 0.606922 0.816769
vt 0.407555 0.816769
vt 0.719083 0.410678
vt 0.719083 0.219625
vt 0.726608 0.219625
vt 0.726608 0.410678
vt 1.000000 0.411233
vt 1.000000 0.807803
vt 0.992471 0.807803
vt 0.992471 0.411233
vt 0.719083 0.219625
vt 0.719083 0.410678
vt 0.711556 0.410678
vt 0.711556 0.219625
vt 0.975552 0.001927
vt 0.975552 0.407604
vt 0.962774 0.407604
vt 0.962774 0.001927
vt 0.411712 0.415785
vt 0.407555 0.411233
vt 0.602765 0.415785
vt 0.606922 0.411233
vt 0.208188 0.816910
vt 0.208188 0.411233
vt 0.219167 0.421885
vt 0.219167 0.806258
vt 0.911465 0.000000
vt 0.911465 0.199367
vt 0.898690 0.199367
vt 0.898690 0.000000
vt 0.975552 0.407604
vt 0.975552 0.001927
vt 0.988330 0.001927
vt 0.988330 0.407604
vt 0.911465 0.199367
vt 0.911465 0.000000
vt 0.924236 0.000000
vt 0.924236 0.199367
vt 0.962774 0.023230
vt 0.962774 0.407604
vt 0.947067 0.407604
vt 0.947067 0.023230
vt 0.407555 0.816910
vt 0.396576 0.806258
vt 0.407555 0.411233
vt 0.396576 0.421885
vt 0.606922 0.411233
vt 0.784331 0.411233
vt 0.784331 0.795606
vt 0.606922 0.795606
vt 0.679070 0.219625
vt 0.679070 0.397034
vt 0.663370 0.397034
vt 0.663370 0.219625
vt 0.931359 0.407604
vt 0.931359 0.023230
vt 0.947067 0.023230
vt 0.947067 0.407604
vt 0.647667 0.397034
vt 0.647667 0.219625
vt 0.663370 0.219625
vt 0.663370 0.397034
vt 0.742846 0.285098
vt 0.726608 0.285098
vt 0.726608 0.268855
vt 0.742846 0.268855
vt 0.876144 0.385817
vt 0.876646 0.402053
vt 0.861038 0.396946
vt 0.860536 0.380710
vt 0.695313 0.371101
vt 0.695313 0.387345
vt 0.679070 0.387345
vt 0.679070 0.371101
vt 0.913896 0.229975
vt 0.914398 0.213739
vt 0.931359 0.208188
vt 0.930857 0.224424
vt 0.679070 0.219625
vt 0.695313 0.219625
vt 0.742852 0.235239
vt 0.742852 0.252208
vt 0.726608 0.252208
vt 0.726608 0.235239
vt 0.742852 0.219625
vt 0.726608 0.219625
vt 0.742852 0.252208
vt 0.742852 0.268855
vt 0.726608 0.268855
vt 0.726608 0.252208
vt 0.898289 0.235082
vt 0.898791 0.218846
vt 0.893105 0.391368
vt 0.893607 0.407604
vt 0.711556 0.405496
vt 0.695313 0.405496
vt 0.695313 0.371049
vt 0.711556 0.371049
vt 0.855855 0.229306
vt 0.871462 0.234413
vt 0.909214 0.381379
vt 0.893607 0.386486
vt 0.711556 0.371049
vt 0.695313 0.371049
vt 0.695313 0.219625
vt 0.711556 0.219625
vt 0.726608 0.285098
vt 0.742663 0.285098
vt 0.742663 0.301342
vt 0.726608 0.301342
vt 0.679070 0.387345
vt 0.695313 0.387345
vt 0.695313 0.409476
vt 0.679070 0.409476
vt 0.931359 0.391773
vt 0.926993 0.407604
vt 0.889241 0.208188
vt 0.893607 0.224019
vn 0.0000 0.0000 1.0000
vn -1.0000 0.0000 0.0000
vn 0.0000 -1.0000 0.0000
vn 1.0000 0.0000 0.0000
vn 0.0000 0.0000 -1.0000
vn 0.0000 0.9717 0.2364
vn 0.0000 0.9717 -0.2364
vn 0.0000 1.0000 0.0000
vn 0.3402 0.9403 0.0000
vn -0.3402 -0.9403 0.0000
vn 0.5082 -0.8612 0.0000
vn -0.9718 -0.2360 0.0000
vn -0.3967 0.9179 0.0000
usemtl Material
s off
f 1/1/1 5/2/1 12/3/1 11/4/1
f 4/5/1 3/6/1 7/7/1 8/8/1
f 8/9/2 7/10/2 5/11/2 6/12/2
f 6/13/3 2/14/3 4/15/3 8/16/3
f 2/17/4 1/18/4 3/19/4 4/20/4
f 6/21/5 5/22/5 1/23/5 2/24/5
f 10/25/6 9/26/6 13/27/6 14/28/6
f 7/29/1 3/30/1 9/31/1 10/32/1
f 5/2/1 7/29/1 10/32/1 12/3/1
f 3/30/1 1/1/1 11/4/1 9/31/1
f 15/33/5 16/34/5 20/35/5 19/36/5
f 11/37/7 12/38/7 16/39/7 15/40/7
f 9/41/3 11/42/3 15/43/3 13/44/3
f 12/45/3 10/46/3 14/47/3 16/48/3
f 19/49/8 20/50/8 18/51/8 17/52/8
f 17/53/4 13/54/4 22/55/4 24/56/4
f 16/57/2 14/58/2 18/59/2 20/60/2
f 14/61/1 13/62/1 17/63/1 18/64/1
f 24/65/1 22/66/1 26/67/1 28/68/1
f 13/54/4 15/69/4 21/70/4 22/55/4
f 15/69/4 19/71/4 23/72/4 21/70/4
f 19/71/4 17/53/4 24/56/4 23/72/4
f 27/73/2 28/74/2 32/75/2 31/76/2
f 23/77/8 24/78/8 28/79/8 27/80/8
f 21/81/5 23/82/5 27/83/5 25/84/5
f 22/85/3 21/86/3 25/87/3 26/88/3
f 29/89/5 31/90/5 35/91/5 33/92/5
f 25/93/2 27/73/2 31/76/2 29/94/2
f 26/95/2 25/93/2 29/94/2 30/96/2
f 28/74/2 26/95/2 30/96/2 32/75/2
f 36/97/4 34/98/4 38/99/4 40/100/4
f 30/101/3 29/102/3 33/103/3 34/104/3
f 32/105/1 30/106/1 34/107/1 36/108/1
f 31/109/8 32/110/8 36/111/8 35/112/8
f 37/113/1 39/114/1 43/115/1 41/116/1
f 35/117/4 36/97/4 40/100/4 39/118/4
f 33/119/4 35/117/4 39/118/4 37/120/4
f 34/98/4 33/119/4 37/120/4 38/99/4
f 42/121/4 41/122/4 43/123/4 44/124/4
f 38/125/8 37/126/8 41/127/8 42/128/8
f 40/129/5 38/130/5 42/131/5 44/132/5
f 39/133/3 40/134/3 44/135/3 43/136/3
f 45/137/2 46/138/2 48/139/2 47/140/2
f 53/141/5 54/142/5 52/143/5 51/144/5
f 51/145/4 52/146/4 50/147/4 49/148/4
f 55/149/1 56/150/1 46/151/1 45/152/1
f 51/145/4 49/148/4 57/153/4 58/154/4
f 54/155/9 48/156/9 46/157/9 56/158/9
f 52/159/9 54/155/9 56/158/9 50/160/9
f 47/161/10 53/162/10 55/163/10 45/164/10
f 49/165/1 50/166/1 56/150/1 55/149/1
f 47/167/5 48/168/5 54/142/5 53/141/5
f 58/169/11 57/170/11 61/171/11 62/172/11
f 53/141/5 51/144/5 58/173/5 60/174/5
f 49/165/1 55/149/1 59/175/1 57/176/1
f 55/177/2 53/178/2 60/179/2 59/180/2
f 64/181/12 62/182/12 61/183/12 63/184/12
f 59/185/13 60/186/13 64/187/13 63/188/13
f 57/176/1 59/175/1 63/189/1 61/190/1
f 60/174/5 58/173/5 62/191/5 64/192/5
