# Blender v3.2.0 OBJ File: 'Scanner.blend'
# www.blender.org
mtllib Scanner.mtl
o Scanner_Cube
v 1.300000 0.634323 -1.724598
v 0.970009 -0.430188 -1.559082
v 1.300000 0.634323 2.724598
v 1.300000 -0.713709 2.395713
v -1.300000 0.634323 -1.724598
v -0.970009 -0.430188 -1.559082
v -1.300000 0.634323 2.724598
v -1.300000 -0.713709 2.395713
v 1.300000 0.000000 -1.724598
v -1.300000 0.000000 2.724598
v 1.300000 0.000000 2.724598
v -1.300000 0.000000 -1.724598
v -0.970009 -0.430188 0.000000
v 1.300000 0.634323 0.000000
v -1.300000 0.634323 0.000000
v 0.970009 -0.430188 0.000000
v 1.300000 0.000000 0.000000
v -1.300000 0.000000 0.000000
v 1.127308 0.634323 2.561749
v -1.127308 0.634323 2.561749
v 1.127308 0.634323 0.022701
v -1.127308 0.634323 0.022701
v -1.127308 0.634323 -1.584449
v 1.127308 0.634323 -1.584449
v 1.127308 0.592567 2.561749
v -1.127308 0.592567 2.561749
v 1.127308 0.592567 0.022701
v -1.127308 0.592567 0.022701
v -1.127308 0.592567 -1.584449
v 1.127308 0.592567 -1.584449
v 1.053007 -0.138033 2.683479
v 1.053007 -0.575676 2.436832
v -1.053007 -0.575676 2.436832
v -1.053007 -0.138033 2.683479
v 1.053007 -0.087741 2.594244
v 1.053007 -0.525385 2.347596
v -1.053007 -0.525385 2.347596
v -1.053007 -0.087741 2.594244
v 1.398875 0.400000 1.629632
v 1.398875 0.200000 1.629632
v 1.398875 0.400000 2.121579
v 1.398875 0.200000 2.121579
v 1.198875 0.400000 1.629632
v 1.198875 0.200000 1.629632
v 1.198875 0.400000 2.121579
v 1.198875 0.200000 2.121579
v 1.398875 0.400000 1.040607
v 1.398875 0.200000 1.040607
v 1.398875 0.400000 1.532554
v 1.398875 0.200000 1.532554
v 1.198875 0.400000 1.040607
v 1.198875 0.200000 1.040607
v 1.198875 0.400000 1.532554
v 1.198875 0.200000 1.532554
v -0.480000 -2.500000 -0.000000
v -0.480000 -0.300000 -0.000000
v -0.480000 -2.500000 -1.200000
v -0.480000 -0.300000 -1.200000
v 0.480000 -2.500000 -0.000000
v 0.480000 -0.300000 -0.000000
v 0.480000 -2.500000 -1.200000
v 0.480000 -0.300000 -1.200000
v -0.480000 -1.400000 -0.200000
v -0.480000 -1.400000 -1.400000
v 0.480000 -1.400000 -1.400000
v 0.480000 -1.400000 -0.200000
v -0.480000 -2.500000 -0.600000
v -0.480000 -0.300000 -0.600000
v 0.480000 -2.500000 -0.600000
v 0.480000 -0.300000 -0.600000
v 0.480000 -1.400000 -0.800000
v -0.480000 -1.400000 -0.800000
v -0.233966 -0.896827 0.384914
v -0.233966 -0.428896 0.384914
v -0.233966 -0.896827 -0.083017
v -0.233966 -0.428896 -0.083017
v 0.233966 -0.896827 0.384914
v 0.233966 -0.428896 0.384914
v 0.233966 -0.896827 -0.083017
v 0.233966 -0.428896 -0.083017
vt 0.625000 0.125000
vt 0.625000 0.000000
vt 0.625000 0.000000
vt 0.625000 0.125000
vt 0.500000 0.750000
vt 0.625000 0.750000
vt 0.625000 1.000000
vt 0.500000 1.000000
vt 0.500000 0.125000
vt 0.625000 0.250000
vt 0.500000 0.250000
vt 0.125000 0.625000
vt 0.375000 0.625000
vt 0.375000 0.750000
vt 0.125000 0.750000
vt 0.500000 0.625000
vt 0.625000 0.625000
vt 0.625000 0.500000
vt 0.500000 0.500000
vt 0.375000 0.250000
vt 0.375000 0.500000
vt 0.375000 0.125000
vt 0.375000 0.750000
vt 0.125000 0.750000
vt 0.375000 0.000000
vt 0.500000 0.000000
vt 0.125000 0.500000
vt 0.625000 0.625000
vt 0.625000 0.500000
vt 0.625000 0.500000
vt 0.625000 0.625000
vt 0.625000 0.250000
vt 0.625000 0.750000
vt 0.625000 1.000000
vt 0.625000 0.750000
vt 0.625000 0.250000
vt 0.625000 0.125000
vt 0.625000 0.000000
vt 0.625000 1.000000
vt 0.500000 0.750000
vt 0.500000 1.000000
vt 0.500000 1.000000
vt 0.500000 0.750000
vt 0.375000 0.000000
vt 0.500000 0.000000
vt 0.375000 0.750000
vt 0.375000 1.000000
vt 0.125000 0.750000
vt 0.375000 0.000000
vt 0.500000 0.000000
vt 0.375000 0.000000
vt 0.375000 0.250000
vt 0.625000 0.250000
vt 0.625000 0.000000
vt 0.375000 0.500000
vt 0.625000 0.500000
vt 0.375000 0.750000
vt 0.625000 0.750000
vt 0.375000 1.000000
vt 0.625000 1.000000
vt 0.125000 0.500000
vt 0.125000 0.750000
vt 0.875000 0.750000
vt 0.875000 0.500000
vt 0.375000 0.000000
vt 0.375000 0.250000
vt 0.625000 0.250000
vt 0.625000 0.000000
vt 0.375000 0.500000
vt 0.625000 0.500000
vt 0.375000 0.750000
vt 0.625000 0.750000
vt 0.375000 1.000000
vt 0.625000 1.000000
vt 0.125000 0.500000
vt 0.125000 0.750000
vt 0.875000 0.750000
vt 0.875000 0.500000
vt 0.500000 0.125000
vt 0.625000 0.125000
vt 0.625000 0.250000
vt 0.500000 0.250000
vt 0.625000 0.500000
vt 0.500000 0.500000
vt 0.500000 0.625000
vt 0.625000 0.625000
vt 0.625000 0.750000
vt 0.500000 0.750000
vt 0.625000 1.000000
vt 0.500000 1.000000
vt 0.125000 0.625000
vt 0.375000 0.625000
vt 0.375000 0.750000
vt 0.125000 0.750000
vt 0.875000 0.625000
vt 0.875000 0.750000
vt 0.375000 1.000000
vt 0.375000 0.250000
vt 0.375000 0.500000
vt 0.375000 0.125000
vt 0.375000 0.000000
vt 0.500000 0.000000
vt 0.875000 0.500000
vt 0.125000 0.500000
vt 0.625000 0.000000
vt 0.375000 0.000000
vt 0.625000 0.000000
vt 0.625000 0.250000
vt 0.375000 0.250000
vt 0.625000 0.500000
vt 0.375000 0.500000
vt 0.625000 0.750000
vt 0.375000 0.750000
vt 0.625000 1.000000
vt 0.375000 1.000000
vt 0.125000 0.500000
vt 0.125000 0.750000
vt 0.875000 0.500000
vt 0.875000 0.750000
vn 0.0000 1.0000 0.0000
vn 0.0000 0.0000 1.0000
vn -1.0000 0.0000 0.0000
vn 0.0000 -0.9931 -0.1175
vn 1.0000 0.0000 0.0000
vn 0.0000 0.0000 -1.0000
vn 0.0000 -0.3591 -0.9333
vn 0.9636 -0.2561 -0.0763
vn -0.7934 -0.6086 0.0000
vn 0.0000 -0.2855 0.9584
vn -0.9636 -0.2561 -0.0763
vn 0.7934 -0.6086 0.0000
vn 0.0000 -1.0000 0.0000
vn 0.0000 -0.8712 -0.4910
vn 0.0000 -0.4471 0.8945
vn 0.0000 -0.4910 0.8712
vn 0.0000 0.8712 0.4910
vn 0.0000 0.1789 -0.9839
vn 0.0000 -0.1789 0.9839
vn 0.0000 0.1789 0.9839
vn 0.0000 -0.1789 -0.9839
usemtl Material
s off
f 15/1/1 7/2/1 20/3/1 22/4/1
f 11/5/2 3/6/2 7/7/2 10/8/2
f 18/9/3 15/1/3 5/10/3 12/11/3
f 13/12/4 16/13/4 4/14/4 8/15/4
f 17/16/5 14/17/5 3/6/5 11/5/5
f 12/11/6 5/10/6 1/18/6 9/19/6
f 6/20/7 12/11/7 9/19/7 2/21/7
f 16/13/8 17/16/8 11/5/8 4/14/8
f 13/22/9 18/9/9 12/11/9 6/20/9
f 8/15/10 4/14/10 32/23/10 33/24/10
f 8/25/11 10/26/11 18/9/11 13/22/11
f 2/21/12 9/19/12 17/16/12 16/13/12
f 9/19/5 1/18/5 14/17/5 17/16/5
f 6/27/13 2/21/13 16/13/13 13/12/13
f 10/26/3 7/2/3 15/1/3 18/9/3
f 21/28/3 24/29/3 30/30/3 27/31/3
f 5/10/1 15/1/1 22/4/1 23/32/1
f 3/6/1 14/17/1 21/28/1 19/33/1
f 14/17/1 1/18/1 24/29/1 21/28/1
f 1/18/1 5/10/1 23/32/1 24/29/1
f 7/7/1 3/6/1 19/33/1 20/34/1
f 25/35/1 27/31/1 30/30/1 29/36/1 28/37/1 26/38/1
f 23/32/5 22/4/5 28/37/5 29/36/5
f 20/34/6 19/33/6 25/35/6 26/39/6
f 22/4/5 20/3/5 26/38/5 28/37/5
f 24/29/2 23/32/2 29/36/2 30/30/2
f 19/33/3 21/28/3 27/31/3 25/35/3
f 31/40/14 34/41/14 38/42/14 35/43/14
f 11/5/10 10/8/10 34/41/10 31/40/10
f 4/14/15 11/5/15 31/40/15 32/23/15
f 10/26/15 8/25/15 33/44/15 34/45/15
f 36/46/16 35/43/16 38/42/16 37/47/16
f 33/24/17 32/23/17 36/46/17 37/48/17
f 34/45/5 33/44/5 37/49/5 38/50/5
f 32/23/3 31/40/3 35/43/3 36/46/3
f 39/51/5 41/52/5 42/53/5 40/54/5
f 41/52/2 45/55/2 46/56/2 42/53/2
f 45/55/3 43/57/3 44/58/3 46/56/3
f 43/57/6 39/59/6 40/60/6 44/58/6
f 41/61/1 39/62/1 43/57/1 45/55/1
f 46/56/13 44/58/13 40/63/13 42/64/13
f 47/65/5 49/66/5 50/67/5 48/68/5
f 49/66/2 53/69/2 54/70/2 50/67/2
f 53/69/3 51/71/3 52/72/3 54/70/3
f 51/71/6 47/73/6 48/74/6 52/72/6
f 49/75/1 47/76/1 51/71/1 53/69/1
f 54/70/13 52/72/13 48/77/13 50/78/13
f 72/79/3 68/80/3 58/81/3 64/82/3
f 64/82/18 58/81/18 62/83/18 65/84/18
f 71/85/5 70/86/5 60/87/5 66/88/5
f 66/88/19 60/87/19 56/89/19 63/90/19
f 67/91/13 69/92/13 59/93/13 55/94/13
f 70/86/1 68/95/1 56/96/1 60/87/1
f 59/93/20 66/88/20 63/90/20 55/97/20
f 69/92/5 71/85/5 66/88/5 59/93/5
f 57/98/21 64/82/21 65/84/21 61/99/21
f 67/100/3 72/79/3 64/82/3 57/98/3
f 55/101/3 63/102/3 72/79/3 67/100/3
f 61/99/5 65/84/5 71/85/5 69/92/5
f 62/83/1 58/103/1 68/95/1 70/86/1
f 57/104/13 61/99/13 69/92/13 67/91/13
f 65/84/5 62/83/5 70/86/5 71/85/5
f 63/102/3 56/105/3 68/80/3 72/79/3
f 73/106/3 74/107/3 76/108/3 75/109/3
f 75/109/6 76/108/6 80/110/6 79/111/6
f 79/111/5 80/110/5 78/112/5 77/113/5
f 77/113/2 78/112/2 74/114/2 73/115/2
f 75/116/13 79/111/13 77/113/13 73/117/13
f 80/110/1 76/118/1 74/119/1 78/112/1
