# Blender v3.2.0 OBJ File: 'PickUpableObjects.blend'
# www.blender.org
mtllib apple.mtl
o Apple_Sphere.001
v 0.000000 0.664422 2.292893
v 0.000000 -0.000000 2.000000
v 0.000000 -0.664422 2.292893
v 0.672499 0.664422 2.781492
v 0.951057 -0.000000 2.690983
v 0.672499 -0.664422 2.781492
v 0.415627 0.664422 3.572062
v 0.587785 -0.000000 3.809017
v 0.415627 -0.664422 3.572062
v -0.000000 0.563780 3.000000
v -0.415627 0.664422 3.572062
v -0.587785 -0.000000 3.809017
v -0.415627 -0.664422 3.572062
v -0.672499 0.664422 2.781492
v -0.951057 -0.000000 2.690983
v -0.672499 -0.664422 2.781492
v 0.000000 -0.563780 3.000000
v -0.075480 0.526867 3.076257
v -0.127794 1.032777 3.148262
v -0.075480 0.547456 2.931600
v -0.127794 1.053366 3.003605
v 0.038712 0.538441 3.077904
v -0.013603 1.044351 3.149909
v 0.038712 0.559029 2.933247
v -0.013603 1.064940 3.005253
vt 0.000000 0.248132
vt 0.160851 0.248132
vt 0.186254 0.496264
vt 0.017962 0.423588
vt 0.694924 0.417820
vt 0.545440 0.526910
vt 0.488672 0.350776
vt 0.545916 0.174670
vt 0.488672 0.000000
vt 0.694924 0.067044
vt 0.343238 0.248132
vt 0.361201 0.423588
vt 0.962323 0.000000
vt 1.000000 0.171041
vt 0.694924 0.171041
vt 0.746602 0.000000
vt 0.361201 0.526131
vt 0.694924 0.283835
vt 0.961053 0.346478
vt 0.745332 0.346478
vt 0.261792 0.496264
vt 0.306708 0.672433
vt 0.000000 0.672433
vt 0.044916 0.496264
vt 0.488672 0.701551
vt 0.488672 0.350775
vt 0.261792 0.842546
vt 0.044916 0.842546
vt 0.939238 0.346478
vt 0.997337 0.510836
vt 0.694924 0.510836
vt 0.725400 0.346478
vt 0.694924 0.634611
vt 0.361201 0.175356
vt 0.946399 0.690506
vt 0.732561 0.690506
vt 0.017962 0.072676
vt 0.186254 0.000000
vt 0.361201 0.072676
vt 0.306708 0.761743
vt 0.306708 0.631654
vt 0.344512 0.630473
vt 0.344512 0.760561
vt 0.694924 0.824526
vt 0.694924 0.690506
vt 0.724872 0.690506
vt 0.724872 0.824526
vt 0.344042 0.496264
vt 0.344042 0.630200
vt 0.306708 0.630473
vt 0.306708 0.496537
vt 0.754819 0.690506
vt 0.754819 0.823961
vt 0.724872 0.823986
vt 0.724872 0.690532
vt 0.391042 0.701551
vt 0.420883 0.701848
vt 0.420883 0.739706
vt 0.391042 0.739409
vt 0.361201 0.701848
vt 0.391042 0.701551
vt 0.391042 0.739409
vt 0.361201 0.739706
vn 0.5536 -0.3359 -0.7620
vn -0.1018 0.9849 0.1402
vn -0.1018 -0.9849 0.1402
vn 0.5536 0.3359 -0.7620
vn 0.8958 -0.3359 0.2911
vn -0.1648 0.9849 -0.0535
vn -0.1648 -0.9849 -0.0535
vn 0.8958 0.3359 0.2911
vn 0.0000 -0.3359 0.9419
vn 0.0000 0.9849 -0.1733
vn 0.0000 -0.9849 -0.1733
vn 0.0000 0.3359 0.9419
vn -0.8958 -0.3359 0.2911
vn 0.1648 0.9849 -0.0535
vn 0.1648 -0.9849 -0.0535
vn -0.8958 0.3359 0.2911
vn -0.5536 -0.3359 -0.7620
vn 0.1018 0.9849 0.1402
vn 0.1018 -0.9849 0.1402
vn -0.5536 0.3359 -0.7620
vn -0.9948 -0.1008 -0.0144
vn 0.0000 0.1409 -0.9900
vn 0.9948 0.1008 0.0144
vn -0.0000 -0.1409 0.9900
vn 0.1018 -0.9849 -0.1402
usemtl Material.001
s off
f 3/1/1 2/2/1 5/3/1 6/4/1
f 1/5/2 10/6/2 4/7/2
f 17/8/3 3/9/3 6/10/3
f 2/2/4 1/11/4 4/12/4 5/3/4
f 6/13/5 5/14/5 8/15/5 9/16/5
f 4/7/6 10/6/6 7/17/6
f 17/8/7 6/10/7 9/18/7
f 5/14/8 4/19/8 7/20/8 8/15/8
f 9/21/9 8/22/9 12/23/9 13/24/9
f 7/17/10 10/6/10 11/25/10
f 17/8/11 9/18/11 13/26/11
f 8/22/12 7/27/12 11/28/12 12/23/12
f 13/29/13 12/30/13 15/31/13 16/32/13
f 11/25/14 10/6/14 14/33/14
f 17/8/15 13/26/15 16/34/15
f 12/30/16 11/35/16 14/36/16 15/31/16
f 16/37/17 15/38/17 2/2/17 3/1/17
f 14/33/18 10/6/18 1/5/18
f 17/8/19 16/34/19 3/9/19
f 15/38/20 14/39/20 1/11/20 2/2/20
f 18/40/21 19/41/21 21/42/21 20/43/21
f 20/44/22 21/45/22 25/46/22 24/47/22
f 24/48/23 25/49/23 23/50/23 22/51/23
f 22/52/24 23/53/24 19/54/24 18/55/24
f 20/56/25 24/57/25 22/58/25 18/59/25
f 25/60/2 21/61/2 19/62/2 23/63/2
