# Blender v3.2.0 OBJ File: 'PickUpableObjects.blend'
# www.blender.org
mtllib celery.mtl
o Celery_Cube
v -0.392000 -0.392000 8.940800
v -0.392000 0.392000 8.940800
v -0.392000 -0.392000 7.059200
v -0.392000 0.392000 7.059200
v 0.392000 -0.392000 8.940800
v 0.392000 0.392000 8.940800
v 0.392000 -0.392000 7.059200
v 0.392000 0.392000 7.059200
v -0.392000 -0.392000 7.686400
v -0.392000 -0.392000 8.313600
v -0.392000 0.392000 8.313600
v -0.392000 0.392000 7.686400
v 0.392000 -0.392000 8.313600
v 0.392000 -0.392000 7.686400
v 0.392000 0.392000 7.686400
v 0.392000 0.392000 8.313600
v 0.163333 -0.490000 6.824000
v -0.163333 -0.490000 6.824000
v -0.163333 0.490000 6.824000
v 0.163333 0.490000 6.824000
v -0.163333 -0.490000 9.176000
v 0.163333 -0.490000 9.176000
v 0.163333 0.490000 9.176000
v -0.163333 0.490000 9.176000
v -0.163333 0.490000 7.608000
v 0.163333 0.490000 7.608000
v -0.163333 0.490000 8.392000
v 0.163333 0.490000 8.392000
v 0.163333 -0.490000 7.608000
v -0.163333 -0.490000 7.608000
v 0.163333 -0.490000 8.392000
v -0.163333 -0.490000 8.392000
v -0.490000 -0.163333 9.176000
v -0.490000 0.163333 9.176000
v -0.490000 0.163333 6.824000
v -0.490000 -0.163333 6.824000
v 0.490000 0.163333 6.824000
v 0.490000 -0.163333 6.824000
v 0.490000 0.163333 9.176000
v 0.490000 -0.163333 9.176000
v 0.490000 0.163333 7.608000
v 0.490000 -0.163333 7.608000
v 0.490000 0.163333 8.392000
v 0.490000 -0.163333 8.392000
v -0.490000 0.163333 8.392000
v -0.490000 -0.163333 8.392000
v -0.490000 0.163333 7.608000
v -0.490000 -0.163333 7.608000
v 0.163333 0.163333 9.176000
v 0.163333 -0.163333 9.176000
v -0.163333 0.163333 9.176000
v -0.163333 -0.163333 9.176000
v -0.163333 0.163333 6.824000
v -0.163333 -0.163333 6.824000
v 0.163333 0.163333 6.824000
v 0.163333 -0.163333 6.824000
vt 0.872549 0.470588
vt 0.941177 0.447059
vt 0.941177 0.635294
vt 0.872549 0.705882
vt 0.490196 0.901961
vt 0.588235 0.901961
vt 0.558823 0.970588
vt 0.490196 1.000000
vt 0.637255 0.470588
vt 0.705883 0.447059
vt 0.705882 0.635294
vt 0.637255 0.705882
vt 0.196078 0.901961
vt 0.294118 0.901961
vt 0.264706 0.970588
vt 0.196078 1.000000
vt 0.401961 0.470588
vt 0.470588 0.447059
vt 0.470588 0.635294
vt 0.401961 0.705882
vt 0.166667 0.470588
vt 0.235294 0.447059
vt 0.235294 0.635294
vt 0.166667 0.705882
vt 0.166667 0.000000
vt 0.235294 0.070588
vt 0.235294 0.258824
vt 0.166667 0.235294
vt 0.401961 0.000000
vt 0.470588 0.070588
vt 0.470588 0.258824
vt 0.401961 0.235294
vt 0.637255 0.000000
vt 0.705883 0.070588
vt 0.705883 0.258824
vt 0.637255 0.235294
vt 0.872549 0.000000
vt 0.941177 0.070588
vt 0.941177 0.258824
vt 0.872549 0.235294
vt 0.235294 0.258824
vt 0.303922 0.235294
vt 0.303922 0.470588
vt 0.235294 0.447059
vt 0.235294 0.070588
vt 0.303922 0.000000
vt 0.000000 0.258824
vt 0.068627 0.235294
vt 0.068627 0.470588
vt 0.000000 0.447059
vt 0.000000 0.070588
vt 0.068628 0.000000
vt 0.068627 0.705882
vt 0.000000 0.635294
vt 0.303922 0.705882
vt 0.235294 0.635294
vt 0.196078 0.705882
vt 0.264706 0.735294
vt 0.294118 0.803922
vt 0.196078 0.803922
vt 0.490196 0.705882
vt 0.558823 0.735294
vt 0.588235 0.803922
vt 0.490196 0.803922
vt 0.294118 0.803922
vt 0.392157 0.803922
vt 0.392157 0.901961
vt 0.294118 0.901961
vt 0.323529 0.735294
vt 0.392157 0.705882
vt 0.000000 0.803922
vt 0.098039 0.803922
vt 0.098039 0.901961
vt 0.000000 0.901961
vt 0.029412 0.735294
vt 0.098039 0.705882
vt 0.705882 0.258824
vt 0.774510 0.235294
vt 0.774510 0.470588
vt 0.705882 0.447059
vt 0.705883 0.070588
vt 0.774510 0.000000
vt 0.539216 0.235294
vt 0.539216 0.470588
vt 0.539216 0.000000
vt 0.098039 1.000000
vt 0.029412 0.970588
vt 0.539216 0.705882
vt 0.392157 1.000000
vt 0.323529 0.970588
vt 0.774510 0.705882
vt 0.705882 0.635294
vn -0.9191 0.3939 0.0000
vn 0.4159 0.4159 -0.8087
vn 0.9191 0.3939 0.0000
vn -0.4159 0.4159 0.8087
vn 0.3939 -0.9191 0.0000
vn -0.3939 0.9191 0.0000
vn -0.3939 -0.9191 0.0000
vn 0.0000 -1.0000 0.0000
vn 0.3939 0.9191 0.0000
vn 0.0000 1.0000 0.0000
vn 0.4159 0.4159 0.8087
vn 0.0000 0.0000 1.0000
vn -0.4159 0.4159 -0.8087
vn 0.0000 0.0000 -1.0000
vn -0.4159 -0.4159 -0.8087
vn 0.4159 -0.4159 0.8087
vn -0.9191 -0.3939 0.0000
vn -1.0000 0.0000 0.0000
vn 0.9191 -0.3939 0.0000
vn 1.0000 0.0000 0.0000
vn -0.4159 -0.4159 0.8087
vn 0.4159 -0.4159 -0.8087
usemtl Material.014
s off
f 47/1/1 12/2/1 4/3/1 35/4/1
f 55/5/2 20/6/2 8/7/2 37/8/2
f 43/9/3 16/10/3 6/11/3 39/12/3
f 51/13/4 24/14/4 2/15/4 34/16/4
f 31/17/5 13/18/5 5/19/5 22/20/5
f 27/21/6 11/22/6 2/23/6 24/24/6
f 19/25/6 4/26/6 12/27/6 25/28/6
f 25/28/6 12/27/6 11/22/6 27/21/6
f 17/29/5 7/30/5 14/31/5 29/32/5
f 29/32/5 14/31/5 13/18/5 31/17/5
f 37/33/3 8/34/3 15/35/3 41/36/3
f 41/36/3 15/35/3 16/10/3 43/9/3
f 34/37/1 2/38/1 11/39/1 45/40/1
f 45/40/1 11/39/1 12/2/1 47/1/1
f 9/41/7 30/42/7 32/43/7 10/44/7
f 30/42/8 29/32/8 31/17/8 32/43/8
f 3/45/7 18/46/7 30/42/7 9/41/7
f 18/46/8 17/29/8 29/32/8 30/42/8
f 15/47/9 26/48/9 28/49/9 16/50/9
f 26/48/10 25/28/10 27/21/10 28/49/10
f 8/51/9 20/52/9 26/48/9 15/47/9
f 20/52/10 19/25/10 25/28/10 26/48/10
f 16/50/9 28/49/9 23/53/9 6/54/9
f 28/49/10 27/21/10 24/24/10 23/53/10
f 10/44/7 32/43/7 21/55/7 1/56/7
f 32/43/8 31/17/8 22/20/8 21/55/8
f 39/57/11 6/58/11 23/59/11 49/60/11
f 49/60/12 23/59/12 24/14/12 51/13/12
f 35/61/13 4/62/13 19/63/13 53/64/13
f 53/64/14 19/63/14 20/6/14 55/5/14
f 18/65/14 54/66/14 56/67/14 17/68/14
f 54/66/14 53/64/14 55/5/14 56/67/14
f 3/69/15 36/70/15 54/66/15 18/65/15
f 36/70/14 35/61/14 53/64/14 54/66/14
f 22/71/12 50/72/12 52/73/12 21/74/12
f 50/72/12 49/60/12 51/13/12 52/73/12
f 5/75/16 40/76/16 50/72/16 22/71/16
f 40/76/12 39/57/12 49/60/12 50/72/12
f 10/77/17 46/78/17 48/79/17 9/80/17
f 46/78/18 45/40/18 47/1/18 48/79/18
f 1/81/17 33/82/17 46/78/17 10/77/17
f 33/82/18 34/37/18 45/40/18 46/78/18
f 14/31/19 42/83/19 44/84/19 13/18/19
f 42/83/20 41/36/20 43/9/20 44/84/20
f 7/30/19 38/85/19 42/83/19 14/31/19
f 38/85/20 37/33/20 41/36/20 42/83/20
f 21/74/21 52/73/21 33/86/21 1/87/21
f 52/73/12 51/13/12 34/16/12 33/86/12
f 13/18/19 44/84/19 40/88/19 5/19/19
f 44/84/20 43/9/20 39/12/20 40/88/20
f 17/68/22 56/67/22 38/89/22 7/90/22
f 56/67/14 55/5/14 37/8/14 38/89/14
f 9/80/17 48/79/17 36/91/17 3/92/17
f 48/79/18 47/1/18 35/4/18 36/91/18
