# Blender v3.2.0 OBJ File: 'PickUpableObjects.blend'
# www.blender.org
mtllib chips.mtl
o Chips_Cube.014
v -0.503738 -1.033660 21.728203
v -0.503738 1.033660 21.728203
v -0.503738 -1.033660 19.855316
v -0.503738 1.033660 19.855316
v 0.503738 -1.033660 21.728203
v 0.503738 1.033660 21.728203
v 0.503738 -1.033660 19.855316
v 0.503738 1.033660 19.855316
v -0.487335 -1.389050 20.791759
v -0.487335 1.000000 20.791759
v 0.487335 -1.389050 20.791759
v 0.487335 1.000000 20.791759
v 0.000000 -1.232391 19.675274
v 0.000000 1.232391 19.675274
v 0.000000 -1.232391 21.908245
v 0.000000 1.232391 21.908245
v 0.000000 1.630971 20.791759
v 0.000000 -1.389050 20.791759
v -0.487335 0.000000 21.791759
v -0.487335 0.000000 19.791759
v 0.487335 0.000000 19.791759
v 0.487335 0.000000 21.791759
v 0.487335 0.000000 20.791759
v -0.487335 0.000000 20.791759
v 0.000000 0.000000 22.108427
v 0.000000 0.000000 19.475092
vt 0.749978 0.309605
vt 0.776565 0.119740
vt 0.955259 0.138244
vt 0.939844 0.336192
vt 0.000000 0.344672
vt 0.005242 0.105361
vt 0.044701 0.138244
vt 0.060116 0.336192
vt 0.249982 0.309605
vt 0.223395 0.119740
vt 0.400298 0.088449
vt 0.439847 0.283018
vt 0.499980 0.274659
vt 0.570753 0.045993
vt 0.599662 0.088449
vt 0.560112 0.283018
vt 0.093120 0.784216
vt 0.186240 0.783592
vt 0.194930 0.968065
vt 0.095569 1.000000
vt 0.793332 0.000000
vt 0.994718 0.105361
vt 0.095569 0.573338
vt 0.194930 0.610206
vt 0.002422 0.611496
vt 0.000000 0.784841
vt 0.206627 0.000000
vt 0.429207 0.045993
vt 0.002422 0.969356
vt 0.999960 0.344672
vt 0.900295 0.530757
vt 0.929187 0.573338
vt 0.455262 0.480963
vt 0.494738 0.513970
vt 0.544698 0.480963
vt 0.713048 0.573338
vt 0.099664 0.530757
vt 0.286912 0.573338
vt 0.505222 0.513970
vt 0.070773 0.573338
vn -0.9999 -0.0083 0.0083
vn 0.4617 0.0993 -0.8815
vn 0.9999 -0.0083 -0.0083
vn -0.4617 0.0993 0.8815
vn 0.2318 -0.9443 0.2337
vn -0.6502 0.7489 0.1279
vn -0.6502 0.7489 -0.1279
vn 0.2318 -0.9443 -0.2337
vn 0.9999 -0.0083 0.0083
vn -0.9999 -0.0083 -0.0083
vn -0.2318 -0.9443 -0.2337
vn 0.6502 0.7489 -0.1279
vn 0.6502 0.7489 0.1279
vn -0.2318 -0.9443 0.2337
vn 0.4617 0.0993 0.8815
vn -0.4617 0.0993 -0.8815
vn -0.4617 -0.0993 -0.8815
vn 0.4617 -0.0993 0.8815
vn -0.9999 0.0070 -0.0098
vn 0.9999 0.0070 0.0098
vn -0.4617 -0.0993 0.8815
vn 0.9999 0.0070 -0.0098
vn 0.4617 -0.0993 -0.8815
vn -0.9999 0.0070 0.0098
usemtl Material.019
s off
f 24/1/1 10/2/1 4/3/1 20/4/1
f 26/5/2 14/6/2 8/7/2 21/8/2
f 23/9/3 12/10/3 6/11/3 22/12/3
f 25/13/4 16/14/4 2/15/4 19/16/4
f 18/17/5 11/18/5 5/19/5 15/20/5
f 17/21/6 10/2/6 2/15/6 16/14/6
f 14/22/7 4/3/7 10/2/7 17/21/7
f 13/23/8 7/24/8 11/18/8 18/17/8
f 21/8/9 8/7/9 12/10/9 23/9/9
f 19/16/10 2/15/10 10/2/10 24/1/10
f 3/25/11 13/23/11 18/17/11 9/26/11
f 8/7/12 14/6/12 17/27/12 12/10/12
f 12/10/13 17/27/13 16/28/13 6/11/13
f 9/26/14 18/17/14 15/20/14 1/29/14
f 22/12/15 6/11/15 16/28/15 25/13/15
f 20/4/16 4/3/16 14/22/16 26/30/16
f 3/31/17 20/4/17 26/30/17 13/32/17
f 5/33/18 22/12/18 25/13/18 15/34/18
f 1/35/19 19/16/19 24/1/19 9/36/19
f 7/37/20 21/8/20 23/9/20 11/38/20
f 15/39/21 25/13/21 19/16/21 1/35/21
f 11/38/22 23/9/22 22/12/22 5/33/22
f 13/40/23 26/5/23 21/8/23 7/37/23
f 9/36/24 24/1/24 20/4/24 3/31/24
