# Blender v3.2.0 OBJ File: 'PickUpableObjects.blend'
# www.blender.org
mtllib ham.mtl
o Ham_Cylinder.001
v 0.000000 -0.160000 -11.566201
v 0.000000 0.160000 -11.566201
v 0.380423 -0.160000 -11.289808
v 0.380423 0.160000 -11.289808
v 0.235114 -0.160000 -10.842595
v 0.235114 0.160000 -10.842595
v -0.235114 -0.160000 -10.842595
v -0.235114 0.160000 -10.842595
v -0.380423 -0.160000 -11.289808
v -0.380423 0.160000 -11.289808
v 0.505250 0.160000 -11.330367
v 0.000000 0.160000 -11.697453
v 0.312261 0.160000 -10.736411
v -0.312262 0.160000 -10.736411
v -0.505250 0.160000 -11.330367
v 0.505250 0.195970 -11.330367
v 0.000000 0.195970 -11.697453
v 0.312261 0.195970 -10.736411
v -0.312262 0.195970 -10.736411
v -0.505250 0.195970 -11.330367
vt 0.370899 0.517951
vt 0.534921 0.517951
vt 0.534921 0.758975
vt 0.370899 0.758975
vt 0.698943 1.000000
vt 0.534921 1.000000
vt 0.534921 0.758975
vt 0.698943 0.758975
vt 0.370899 0.758975
vt 0.534921 1.000000
vt 0.370899 1.000000
vt 0.559876 0.258975
vt 0.701546 0.453968
vt 0.680757 0.517951
vt 0.492601 0.258975
vt 0.534921 0.517951
vt 0.698943 0.517951
vt 0.698943 0.758975
vt 0.534921 0.758975
vt 0.698943 0.517951
vt 0.862965 0.517951
vt 0.862965 0.758975
vt 0.698943 0.758975
vt 0.000000 0.712944
vt 0.141671 0.517951
vt 0.370899 0.592432
vt 0.370899 0.833456
vt 0.141671 0.907937
vt 0.955151 0.517951
vt 0.955151 0.838062
vt 0.936714 0.838062
vt 0.936714 0.517951
vt 0.930774 0.379488
vt 0.930774 0.138463
vt 0.985201 0.098920
vt 0.985201 0.419031
vt 0.701546 0.063982
vt 0.680757 0.000000
vt 0.188157 0.000000
vt 0.492601 0.098920
vt 0.492601 0.419031
vt 0.188157 0.517951
vt 0.000000 0.258975
vt 0.936714 0.517951
vt 0.936714 0.838062
vt 0.918277 0.838062
vt 0.918277 0.517951
vt 0.899839 0.517951
vt 0.899839 0.838062
vt 0.881402 0.838062
vt 0.881402 0.517951
vt 0.918277 0.517951
vt 0.918277 0.838062
vt 0.899839 0.838062
vt 0.899839 0.517951
vt 0.881402 0.517951
vt 0.881402 0.838062
vt 0.862965 0.838062
vt 0.862965 0.517951
vn 0.5878 0.0000 -0.8090
vn 0.9511 0.0000 0.3090
vn 0.0000 0.0000 1.0000
vn 0.0000 -1.0000 0.0000
vn -0.9511 0.0000 0.3090
vn -0.5878 0.0000 -0.8090
vn 0.0000 1.0000 -0.0000
usemtl Material.005
s off
f 1/1/1 2/2/1 4/3/1 3/4/1
f 3/5/2 4/6/2 6/7/2 5/8/2
f 5/9/3 6/7/3 8/10/3 7/11/3
f 6/12/4 4/13/4 11/14/4 13/15/4
f 7/16/5 8/17/5 10/18/5 9/19/5
f 9/20/6 10/21/6 2/22/6 1/23/6
f 1/24/4 3/25/4 5/26/4 7/27/4 9/28/4
f 15/29/5 14/30/5 19/31/5 20/32/5
f 2/33/4 10/34/4 15/35/4 12/36/4
f 4/13/4 2/33/4 12/36/4 11/14/4
f 8/37/4 6/12/4 13/15/4 14/38/4
f 10/34/4 8/37/4 14/38/4 15/35/4
f 16/39/7 17/40/7 20/41/7 19/42/7 18/43/7
f 13/44/2 11/45/2 16/46/2 18/47/2
f 12/48/6 15/49/6 20/50/6 17/51/6
f 14/52/3 13/53/3 18/54/3 19/55/3
f 11/56/1 12/57/1 17/58/1 16/59/1
