# Blender v3.2.0 OBJ File: 'PickUpableObjects.blend'
# www.blender.org
mtllib ice_cream.mtl
o Ice_Cream_Cube.009
v -0.500000 -0.500000 18.457106
v -0.500000 0.500000 18.457106
v -0.500000 -0.500000 16.757105
v -0.500000 0.500000 16.757105
v 0.500000 -0.500000 18.457106
v 0.500000 0.500000 18.457106
v 0.500000 -0.500000 16.757105
v 0.500000 0.500000 16.757105
v -0.582476 0.500000 18.546740
v -0.582476 0.500000 16.667471
v 0.582476 0.500000 16.667471
v 0.582476 0.500000 18.546740
v -0.582476 0.669838 18.546740
v -0.582476 0.669838 16.667471
v 0.582476 0.669838 16.667471
v 0.582476 0.669838 18.546740
vt 0.600604 0.438227
vt 0.858385 0.438227
vt 0.858385 0.876454
vt 0.600604 0.876454
vt 0.515561 0.484439
vt 0.515561 0.742219
vt 0.257781 0.742219
vt 0.257781 0.484439
vt 0.000000 0.484439
vt 0.257781 0.484439
vt 0.257781 0.922666
vt 0.000000 0.922666
vt 0.515561 0.742219
vt 0.515561 1.000000
vt 0.257781 1.000000
vt 0.257781 0.742219
vt 0.600604 0.000000
vt 0.858385 0.000000
vt 0.858385 0.438227
vt 0.579343 0.461333
vt 0.579343 0.023106
vt 0.600604 0.000000
vt 0.600604 0.484439
vt 0.902166 0.484439
vt 0.902166 0.784741
vt 0.858385 0.784741
vt 0.858385 0.484439
vt 0.321563 0.023106
vt 0.321563 0.461333
vt 0.300302 0.484439
vt 0.300302 0.000000
vt 0.000000 0.000000
vt 0.300302 0.000000
vt 0.300302 0.484439
vt 0.000000 0.484439
vt 0.559342 0.484439
vt 0.559342 0.784741
vt 0.515561 0.784741
vt 0.515561 0.484439
vt 0.902166 0.000000
vt 0.902166 0.484439
vt 0.858385 0.484439
vt 0.858385 0.000000
vt 0.945946 0.000000
vt 0.945946 0.484439
vt 0.902166 0.484439
vt 0.902166 0.000000
vn -1.0000 0.0000 0.0000
vn 0.0000 0.0000 -1.0000
vn 1.0000 0.0000 0.0000
vn 0.0000 0.0000 1.0000
vn 0.0000 -1.0000 0.0000
vn 0.0000 1.0000 0.0000
usemtl Material.018
s off
f 1/1/1 2/2/1 4/3/1 3/4/1
f 3/5/2 4/6/2 8/7/2 7/8/2
f 7/9/3 8/10/3 6/11/3 5/12/3
f 5/13/4 6/14/4 2/15/4 1/16/4
f 3/17/5 7/18/5 5/19/5 1/1/5
f 6/20/5 8/21/5 11/22/5 12/23/5
f 9/24/4 12/25/4 16/26/4 13/27/4
f 4/28/5 2/29/5 9/30/5 10/31/5
f 2/29/5 6/20/5 12/23/5 9/30/5
f 8/21/5 4/28/5 10/31/5 11/22/5
f 15/32/6 14/33/6 13/34/6 16/35/6
f 11/36/2 10/37/2 14/38/2 15/39/2
f 12/40/3 11/41/3 15/42/3 16/43/3
f 10/44/1 9/45/1 13/46/1 14/47/1
