# Blender v3.2.0 OBJ File: 'PickUpableObjects.blend'
# www.blender.org
mtllib watermelon.mtl
o Waternelon_Sphere.002
v 0.000000 -1.333679 -5.100000
v 0.000000 -1.333679 -2.900000
v 0.000000 -0.000000 -2.020000
v 1.268404 -0.412129 -5.100000
v 1.268404 -0.412129 -2.900000
v 0.783917 1.078969 -5.100000
v 0.783917 1.078969 -2.900000
v -0.000000 0.000000 -5.980000
v -0.783917 1.078969 -5.100000
v -0.783917 1.078969 -2.900000
v -1.268404 -0.412130 -5.100000
v -1.268404 -0.412130 -2.900000
vt 0.182663 0.000000
vt 0.069771 0.200509
vt 0.000000 0.034104
vt 0.850345 0.000000
vt 0.850345 0.316821
vt 0.624562 0.316821
vt 0.624562 0.000000
vt 0.200509 0.470522
vt 0.000000 0.583414
vt 0.034104 0.400751
vt 0.391905 0.960821
vt 0.365325 0.732256
vt 0.573547 0.819560
vt 0.402758 0.415435
vt 0.365325 0.218722
vt 0.587128 0.176514
vt 0.624562 0.373227
vt 0.438744 0.000644
vt 0.573547 1.000000
vt 0.816892 0.415435
vt 0.816892 0.732256
vt 0.591109 0.732256
vt 0.591109 0.415435
vt 0.624562 0.000000
vt 0.365325 0.034104
vt 0.295554 0.200509
vt 0.365325 0.732256
vt 0.365325 0.415435
vt 0.034104 0.766076
vt 0.200509 0.696306
vt 0.295554 0.400751
vt 0.069771 0.400751
vn 0.3715 -0.5113 0.7749
vn 0.5878 -0.8090 -0.0000
vn 0.3715 -0.5113 -0.7749
vn 0.6011 0.1953 0.7749
vn 0.9511 0.3090 0.0000
vn 0.6011 0.1953 -0.7749
vn -0.0000 0.6320 0.7749
vn -0.0000 1.0000 0.0000
vn 0.0000 0.6320 -0.7749
vn -0.6011 0.1953 0.7749
vn -0.9511 0.3090 0.0000
vn -0.6011 0.1953 -0.7749
vn -0.3715 -0.5113 0.7749
vn -0.5878 -0.8090 0.0000
vn -0.3715 -0.5113 -0.7749
usemtl Material.002
s off
f 3/1/1 2/2/1 5/3/1
f 2/4/2 1/5/2 4/6/2 5/7/2
f 1/8/3 8/9/3 4/10/3
f 3/11/4 5/12/4 7/13/4
f 5/14/5 4/15/5 6/16/5 7/17/5
f 4/15/6 8/18/6 6/16/6
f 3/11/7 7/13/7 10/19/7
f 7/20/8 6/21/8 9/22/8 10/23/8
f 6/16/9 8/18/9 9/24/9
f 3/1/10 10/25/10 12/26/10
f 10/23/11 9/22/11 11/27/11 12/28/11
f 9/29/12 8/9/12 11/30/12
f 3/1/13 12/26/13 2/2/13
f 12/26/14 11/31/14 1/32/14 2/2/14
f 11/30/15 8/9/15 1/8/15
