# Blender v3.2.0 OBJ File: 'PickUpableObjects.blend'
# www.blender.org
mtllib Apple.mtl
o Apple_Sphere.001
v 0.000000 0.664422 2.292893
v 0.000000 -0.000000 2.000000
v 0.000000 -0.664422 2.292893
v 0.672499 0.664422 2.781492
v 0.951057 -0.000000 2.690983
v 0.672499 -0.664422 2.781492
v 0.415627 0.664422 3.572062
v 0.587785 -0.000000 3.809017
v 0.415627 -0.664422 3.572062
v -0.000000 0.563780 3.000000
v -0.415627 0.664422 3.572062
v -0.587785 -0.000000 3.809017
v -0.415627 -0.664422 3.572062
v -0.672499 0.664422 2.781492
v -0.951057 -0.000000 2.690983
v -0.672499 -0.664422 2.781492
v 0.000000 -0.563780 3.000000
v -0.075480 0.526867 3.076257
v -0.127794 1.032777 3.148262
v -0.075480 0.547456 2.931600
v -0.127794 1.053366 3.003605
v 0.038712 0.538441 3.077904
v -0.013603 1.044351 3.149909
v 0.038712 0.559029 2.933247
v -0.013603 1.064940 3.005253
vt 0.600000 0.250000
vt 0.600000 0.500000
vt 0.400000 0.500000
vt 0.400000 0.250000
vt 0.600000 0.750000
vt 0.500000 1.000000
vt 0.400000 0.750000
vt 0.500000 0.000000
vt 0.200000 0.500000
vt 0.200000 0.250000
vt 0.300000 1.000000
vt 0.200000 0.750000
vt 0.300000 0.000000
vt 0.000000 0.500000
vt 0.000000 0.250000
vt 0.100000 1.000000
vt 0.000000 0.750000
vt 0.100000 0.000000
vt 1.000000 0.250000
vt 1.000000 0.500000
vt 0.800000 0.500000
vt 0.800000 0.250000
vt 1.000000 0.750000
vt 0.900000 1.000000
vt 0.800000 0.750000
vt 0.900000 0.000000
vt 0.700000 1.000000
vt 0.700000 0.000000
vt 0.375000 0.000000
vt 0.625000 0.000000
vt 0.625000 0.250000
vt 0.375000 0.250000
vt 0.625000 0.500000
vt 0.375000 0.500000
vt 0.625000 0.750000
vt 0.375000 0.750000
vt 0.625000 1.000000
vt 0.375000 1.000000
vt 0.125000 0.500000
vt 0.125000 0.750000
vt 0.875000 0.500000
vt 0.875000 0.750000
vn 0.5536 -0.3359 -0.7620
vn -0.1018 0.9849 0.1402
vn -0.1018 -0.9849 0.1402
vn 0.5536 0.3359 -0.7620
vn 0.8958 -0.3359 0.2911
vn -0.1648 0.9849 -0.0535
vn -0.1648 -0.9849 -0.0535
vn 0.8958 0.3359 0.2911
vn 0.0000 -0.3359 0.9419
vn 0.0000 0.9849 -0.1733
vn 0.0000 -0.9849 -0.1733
vn 0.0000 0.3359 0.9419
vn -0.8958 -0.3359 0.2911
vn 0.1648 0.9849 -0.0535
vn 0.1648 -0.9849 -0.0535
vn -0.8958 0.3359 0.2911
vn -0.5536 -0.3359 -0.7620
vn 0.1018 0.9849 0.1402
vn 0.1018 -0.9849 0.1402
vn -0.5536 0.3359 -0.7620
vn -0.9948 -0.1008 -0.0144
vn 0.0000 0.1409 -0.9900
vn 0.9948 0.1008 0.0144
vn -0.0000 -0.1409 0.9900
vn 0.1018 -0.9849 -0.1402
usemtl None
s off
f 3/1/1 2/2/1 5/3/1 6/4/1
f 1/5/2 10/6/2 4/7/2
f 17/8/3 3/1/3 6/4/3
f 2/2/4 1/5/4 4/7/4 5/3/4
f 6/4/5 5/3/5 8/9/5 9/10/5
f 4/7/6 10/11/6 7/12/6
f 17/13/7 6/4/7 9/10/7
f 5/3/8 4/7/8 7/12/8 8/9/8
f 9/10/9 8/9/9 12/14/9 13/15/9
f 7/12/10 10/16/10 11/17/10
f 17/18/11 9/10/11 13/15/11
f 8/9/12 7/12/12 11/17/12 12/14/12
f 13/19/13 12/20/13 15/21/13 16/22/13
f 11/23/14 10/24/14 14/25/14
f 17/26/15 13/19/15 16/22/15
f 12/20/16 11/23/16 14/25/16 15/21/16
f 16/22/17 15/21/17 2/2/17 3/1/17
f 14/25/18 10/27/18 1/5/18
f 17/28/19 16/22/19 3/1/19
f 15/21/20 14/25/20 1/5/20 2/2/20
f 18/29/21 19/30/21 21/31/21 20/32/21
f 20/32/22 21/31/22 25/33/22 24/34/22
f 24/34/23 25/33/23 23/35/23 22/36/23
f 22/36/24 23/35/24 19/37/24 18/38/24
f 20/39/25 24/34/25 22/36/25 18/40/25
f 25/33/2 21/41/2 19/42/2 23/35/2
