# Blender v3.2.0 OBJ File: 'PickUpableObjects.blend'
# www.blender.org
mtllib Celery.mtl
o Celery_Cube
v -0.392000 -0.392000 8.940800
v -0.392000 0.392000 8.940800
v -0.392000 -0.392000 7.059200
v -0.392000 0.392000 7.059200
v 0.392000 -0.392000 8.940800
v 0.392000 0.392000 8.940800
v 0.392000 -0.392000 7.059200
v 0.392000 0.392000 7.059200
v -0.392000 -0.392000 7.686400
v -0.392000 -0.392000 8.313600
v -0.392000 0.392000 8.313600
v -0.392000 0.392000 7.686400
v 0.392000 -0.392000 8.313600
v 0.392000 -0.392000 7.686400
v 0.392000 0.392000 7.686400
v 0.392000 0.392000 8.313600
v 0.163333 -0.490000 6.824000
v -0.163333 -0.490000 6.824000
v -0.163333 0.490000 6.824000
v 0.163333 0.490000 6.824000
v -0.163333 -0.490000 9.176000
v 0.163333 -0.490000 9.176000
v 0.163333 0.490000 9.176000
v -0.163333 0.490000 9.176000
v -0.163333 0.490000 7.608000
v 0.163333 0.490000 7.608000
v -0.163333 0.490000 8.392000
v 0.163333 0.490000 8.392000
v 0.163333 -0.490000 7.608000
v -0.163333 -0.490000 7.608000
v 0.163333 -0.490000 8.392000
v -0.163333 -0.490000 8.392000
v -0.490000 -0.163333 9.176000
v -0.490000 0.163333 9.176000
v -0.490000 0.163333 6.824000
v -0.490000 -0.163333 6.824000
v 0.490000 0.163333 6.824000
v 0.490000 -0.163333 6.824000
v 0.490000 0.163333 9.176000
v 0.490000 -0.163333 9.176000
v 0.490000 0.163333 7.608000
v 0.490000 -0.163333 7.608000
v 0.490000 0.163333 8.392000
v 0.490000 -0.163333 8.392000
v -0.490000 0.163333 8.392000
v -0.490000 -0.163333 8.392000
v -0.490000 0.163333 7.608000
v -0.490000 -0.163333 7.608000
v 0.163333 0.163333 9.176000
v 0.163333 -0.163333 9.176000
v -0.163333 0.163333 9.176000
v -0.163333 -0.163333 9.176000
v -0.163333 0.163333 6.824000
v -0.163333 -0.163333 6.824000
v 0.163333 0.163333 6.824000
v 0.163333 -0.163333 6.824000
vt 0.541667 0.166667
vt 0.625000 0.166667
vt 0.625000 0.250000
vt 0.541667 0.250000
vt 0.541667 0.416667
vt 0.625000 0.416667
vt 0.625000 0.500000
vt 0.541667 0.500000
vt 0.541667 0.666667
vt 0.625000 0.666667
vt 0.625000 0.750000
vt 0.541667 0.750000
vt 0.541667 0.916667
vt 0.625000 0.916667
vt 0.625000 1.000000
vt 0.541667 1.000000
vt 0.291667 0.666667
vt 0.375000 0.666667
vt 0.375000 0.750000
vt 0.291667 0.750000
vt 0.791667 0.666667
vt 0.875000 0.666667
vt 0.875000 0.750000
vt 0.791667 0.750000
vt 0.791667 0.500000
vt 0.875000 0.500000
vt 0.875000 0.583333
vt 0.791667 0.583333
vt 0.291667 0.500000
vt 0.375000 0.500000
vt 0.375000 0.583333
vt 0.291667 0.583333
vt 0.625000 0.583333
vt 0.541667 0.583333
vt 0.541667 0.000000
vt 0.625000 0.000000
vt 0.625000 0.083333
vt 0.541667 0.083333
vt 0.125000 0.583333
vt 0.208333 0.583333
vt 0.208333 0.666667
vt 0.125000 0.666667
vt 0.125000 0.500000
vt 0.208333 0.500000
vt 0.708333 0.583333
vt 0.708333 0.666667
vt 0.708333 0.500000
vt 0.708333 0.750000
vt 0.208333 0.750000
vt 0.125000 0.750000
vt 0.625000 0.833333
vt 0.541667 0.833333
vt 0.625000 0.333333
vt 0.541667 0.333333
vt 0.375000 0.333333
vt 0.458333 0.333333
vt 0.458333 0.416667
vt 0.375000 0.416667
vt 0.375000 0.250000
vt 0.458333 0.250000
vt 0.375000 0.833333
vt 0.458333 0.833333
vt 0.458333 0.916667
vt 0.375000 0.916667
vt 0.458333 0.750000
vt 0.375000 0.083333
vt 0.458333 0.083333
vt 0.458333 0.166667
vt 0.375000 0.166667
vt 0.375000 0.000000
vt 0.458333 0.000000
vt 0.458333 0.583333
vt 0.458333 0.666667
vt 0.458333 0.500000
vt 0.458333 1.000000
vt 0.375000 1.000000
vn -0.9191 0.3939 0.0000
vn 0.4159 0.4159 -0.8087
vn 0.9191 0.3939 0.0000
vn -0.4159 0.4159 0.8087
vn 0.3939 -0.9191 0.0000
vn -0.3939 0.9191 0.0000
vn -0.3939 -0.9191 0.0000
vn 0.0000 -1.0000 0.0000
vn 0.3939 0.9191 0.0000
vn 0.0000 1.0000 0.0000
vn 0.4159 0.4159 0.8087
vn 0.0000 0.0000 1.0000
vn -0.4159 0.4159 -0.8087
vn 0.0000 0.0000 -1.0000
vn -0.4159 -0.4159 -0.8087
vn 0.4159 -0.4159 0.8087
vn -0.9191 -0.3939 0.0000
vn -1.0000 0.0000 0.0000
vn 0.9191 -0.3939 0.0000
vn 1.0000 0.0000 0.0000
vn -0.4159 -0.4159 0.8087
vn 0.4159 -0.4159 -0.8087
usemtl None
s off
f 47/1/1 12/2/1 4/3/1 35/4/1
f 55/5/2 20/6/2 8/7/2 37/8/2
f 43/9/3 16/10/3 6/11/3 39/12/3
f 51/13/4 24/14/4 2/15/4 34/16/4
f 31/17/5 13/18/5 5/19/5 22/20/5
f 27/21/6 11/22/6 2/23/6 24/24/6
f 19/25/6 4/26/6 12/27/6 25/28/6
f 25/28/6 12/27/6 11/22/6 27/21/6
f 17/29/5 7/30/5 14/31/5 29/32/5
f 29/32/5 14/31/5 13/18/5 31/17/5
f 37/8/3 8/7/3 15/33/3 41/34/3
f 41/34/3 15/33/3 16/10/3 43/9/3
f 34/35/1 2/36/1 11/37/1 45/38/1
f 45/38/1 11/37/1 12/2/1 47/1/1
f 9/39/7 30/40/7 32/41/7 10/42/7
f 30/40/8 29/32/8 31/17/8 32/41/8
f 3/43/7 18/44/7 30/40/7 9/39/7
f 18/44/8 17/29/8 29/32/8 30/40/8
f 15/33/9 26/45/9 28/46/9 16/10/9
f 26/45/10 25/28/10 27/21/10 28/46/10
f 8/7/9 20/47/9 26/45/9 15/33/9
f 20/47/10 19/25/10 25/28/10 26/45/10
f 16/10/9 28/46/9 23/48/9 6/11/9
f 28/46/10 27/21/10 24/24/10 23/48/10
f 10/42/7 32/41/7 21/49/7 1/50/7
f 32/41/8 31/17/8 22/20/8 21/49/8
f 39/12/11 6/11/11 23/51/11 49/52/11
f 49/52/12 23/51/12 24/14/12 51/13/12
f 35/4/13 4/3/13 19/53/13 53/54/13
f 53/54/14 19/53/14 20/6/14 55/5/14
f 18/55/14 54/56/14 56/57/14 17/58/14
f 54/56/14 53/54/14 55/5/14 56/57/14
f 3/59/15 36/60/15 54/56/15 18/55/15
f 36/60/14 35/4/14 53/54/14 54/56/14
f 22/61/12 50/62/12 52/63/12 21/64/12
f 50/62/12 49/52/12 51/13/12 52/63/12
f 5/19/16 40/65/16 50/62/16 22/61/16
f 40/65/12 39/12/12 49/52/12 50/62/12
f 10/66/17 46/67/17 48/68/17 9/69/17
f 46/67/18 45/38/18 47/1/18 48/68/18
f 1/70/17 33/71/17 46/67/17 10/66/17
f 33/71/18 34/35/18 45/38/18 46/67/18
f 14/31/19 42/72/19 44/73/19 13/18/19
f 42/72/20 41/34/20 43/9/20 44/73/20
f 7/30/19 38/74/19 42/72/19 14/31/19
f 38/74/20 37/8/20 41/34/20 42/72/20
f 21/64/21 52/63/21 33/75/21 1/76/21
f 52/63/12 51/13/12 34/16/12 33/75/12
f 13/18/19 44/73/19 40/65/19 5/19/19
f 44/73/20 43/9/20 39/12/20 40/65/20
f 17/58/22 56/57/22 38/74/22 7/30/22
f 56/57/14 55/5/14 37/8/14 38/74/14
f 9/69/17 48/68/17 36/60/17 3/59/17
f 48/68/18 47/1/18 35/4/18 36/60/18
