# Blender v3.2.0 OBJ File: 'PickUpableObjects.blend'
# www.blender.org
mtllib Chips.mtl
o Chips_Cube.014
v -0.503738 -1.033660 21.728203
v -0.503738 1.033660 21.728203
v -0.503738 -1.033660 19.855316
v -0.503738 1.033660 19.855316
v 0.503738 -1.033660 21.728203
v 0.503738 1.033660 21.728203
v 0.503738 -1.033660 19.855316
v 0.503738 1.033660 19.855316
v -0.487335 -1.389050 20.791759
v -0.487335 1.000000 20.791759
v 0.487335 -1.389050 20.791759
v 0.487335 1.000000 20.791759
v 0.000000 -1.232391 19.675274
v 0.000000 1.232391 19.675274
v 0.000000 -1.232391 21.908245
v 0.000000 1.232391 21.908245
v 0.000000 1.630971 20.791759
v 0.000000 -1.389050 20.791759
v -0.487335 0.000000 21.791759
v -0.487335 0.000000 19.791759
v 0.487335 0.000000 19.791759
v 0.487335 0.000000 21.791759
v 0.487335 0.000000 20.791759
v -0.487335 0.000000 20.791759
v 0.000000 0.000000 22.108427
v 0.000000 0.000000 19.475092
vt 0.500000 0.125000
vt 0.625000 0.125000
vt 0.625000 0.250000
vt 0.500000 0.250000
vt 0.500000 0.375000
vt 0.625000 0.375000
vt 0.625000 0.500000
vt 0.500000 0.500000
vt 0.500000 0.625000
vt 0.625000 0.625000
vt 0.625000 0.750000
vt 0.500000 0.750000
vt 0.500000 0.875000
vt 0.625000 0.875000
vt 0.625000 1.000000
vt 0.500000 1.000000
vt 0.250000 0.625000
vt 0.375000 0.625000
vt 0.375000 0.750000
vt 0.250000 0.750000
vt 0.750000 0.625000
vt 0.875000 0.625000
vt 0.875000 0.750000
vt 0.750000 0.750000
vt 0.750000 0.500000
vt 0.875000 0.500000
vt 0.250000 0.500000
vt 0.375000 0.500000
vt 0.500000 0.000000
vt 0.625000 0.000000
vt 0.125000 0.500000
vt 0.125000 0.625000
vt 0.125000 0.750000
vt 0.375000 0.250000
vt 0.375000 0.375000
vt 0.375000 0.875000
vt 0.375000 0.000000
vt 0.375000 0.125000
vt 0.375000 1.000000
vn -0.9999 -0.0083 0.0083
vn 0.4617 0.0993 -0.8815
vn 0.9999 -0.0083 -0.0083
vn -0.4617 0.0993 0.8815
vn 0.2318 -0.9443 0.2337
vn -0.6502 0.7489 0.1279
vn -0.6502 0.7489 -0.1279
vn 0.2318 -0.9443 -0.2337
vn 0.9999 -0.0083 0.0083
vn -0.9999 -0.0083 -0.0083
vn -0.2318 -0.9443 -0.2337
vn 0.6502 0.7489 -0.1279
vn 0.6502 0.7489 0.1279
vn -0.2318 -0.9443 0.2337
vn 0.4617 0.0993 0.8815
vn -0.4617 0.0993 -0.8815
vn -0.4617 -0.0993 -0.8815
vn 0.4617 -0.0993 0.8815
vn -0.9999 0.0070 -0.0098
vn 0.9999 0.0070 0.0098
vn -0.4617 -0.0993 0.8815
vn 0.9999 0.0070 -0.0098
vn 0.4617 -0.0993 -0.8815
vn -0.9999 0.0070 0.0098
usemtl None
s off
f 24/1/1 10/2/1 4/3/1 20/4/1
f 26/5/2 14/6/2 8/7/2 21/8/2
f 23/9/3 12/10/3 6/11/3 22/12/3
f 25/13/4 16/14/4 2/15/4 19/16/4
f 18/17/5 11/18/5 5/19/5 15/20/5
f 17/21/6 10/22/6 2/23/6 16/24/6
f 14/25/7 4/26/7 10/22/7 17/21/7
f 13/27/8 7/28/8 11/18/8 18/17/8
f 21/8/9 8/7/9 12/10/9 23/9/9
f 19/29/10 2/30/10 10/2/10 24/1/10
f 3/31/11 13/27/11 18/17/11 9/32/11
f 8/7/12 14/25/12 17/21/12 12/10/12
f 12/10/13 17/21/13 16/24/13 6/11/13
f 9/32/14 18/17/14 15/20/14 1/33/14
f 22/12/15 6/11/15 16/14/15 25/13/15
f 20/4/16 4/3/16 14/6/16 26/5/16
f 3/34/17 20/4/17 26/5/17 13/35/17
f 5/19/18 22/12/18 25/13/18 15/36/18
f 1/37/19 19/29/19 24/1/19 9/38/19
f 7/28/20 21/8/20 23/9/20 11/18/20
f 15/36/21 25/13/21 19/16/21 1/39/21
f 11/18/22 23/9/22 22/12/22 5/19/22
f 13/35/23 26/5/23 21/8/23 7/28/23
f 9/38/24 24/1/24 20/4/24 3/34/24
