# Blender v3.2.0 OBJ File: 'PickUpableObjects.blend'
# www.blender.org
mtllib Watermelon.mtl
o Waternelon_Sphere.002
v 0.000000 -1.333679 -5.100000
v 0.000000 -1.333679 -2.900000
v 0.000000 -0.000000 -2.020000
v 1.268404 -0.412129 -5.100000
v 1.268404 -0.412129 -2.900000
v 0.783917 1.078969 -5.100000
v 0.783917 1.078969 -2.900000
v -0.000000 0.000000 -5.980000
v -0.783917 1.078969 -5.100000
v -0.783917 1.078969 -2.900000
v -1.268404 -0.412130 -5.100000
v -1.268404 -0.412130 -2.900000
vt 0.500000 0.000000
vt 0.600000 0.333333
vt 0.400000 0.333333
vt 0.600000 0.666667
vt 0.400000 0.666667
vt 0.500000 1.000000
vt 0.300000 0.000000
vt 0.200000 0.333333
vt 0.200000 0.666667
vt 0.300000 1.000000
vt 0.100000 0.000000
vt 0.000000 0.333333
vt 0.000000 0.666667
vt 0.100000 1.000000
vt 0.900000 0.000000
vt 1.000000 0.333333
vt 0.800000 0.333333
vt 1.000000 0.666667
vt 0.800000 0.666667
vt 0.900000 1.000000
vt 0.700000 0.000000
vt 0.700000 1.000000
vn 0.3715 -0.5113 0.7749
vn 0.5878 -0.8090 -0.0000
vn 0.3715 -0.5113 -0.7749
vn 0.6011 0.1953 0.7749
vn 0.9511 0.3090 0.0000
vn 0.6011 0.1953 -0.7749
vn -0.0000 0.6320 0.7749
vn -0.0000 1.0000 0.0000
vn 0.0000 0.6320 -0.7749
vn -0.6011 0.1953 0.7749
vn -0.9511 0.3090 0.0000
vn -0.6011 0.1953 -0.7749
vn -0.3715 -0.5113 0.7749
vn -0.5878 -0.8090 0.0000
vn -0.3715 -0.5113 -0.7749
usemtl None
s off
f 3/1/1 2/2/1 5/3/1
f 2/2/2 1/4/2 4/5/2 5/3/2
f 1/4/3 8/6/3 4/5/3
f 3/7/4 5/3/4 7/8/4
f 5/3/5 4/5/5 6/9/5 7/8/5
f 4/5/6 8/10/6 6/9/6
f 3/11/7 7/8/7 10/12/7
f 7/8/8 6/9/8 9/13/8 10/12/8
f 6/9/9 8/14/9 9/13/9
f 3/15/10 10/16/10 12/17/10
f 10/16/11 9/18/11 11/19/11 12/17/11
f 9/18/12 8/20/12 11/19/12
f 3/21/13 12/17/13 2/2/13
f 12/17/14 11/19/14 1/4/14 2/2/14
f 11/19/15 8/22/15 1/4/15
